<?xml version="1.0" encoding="UTF-8"?>
<!DOCTYPE svg PUBLIC "-//W3C//DTD SVG 1.1//EN" "http://www.w3.org/Graphics/SVG/1.1/DTD/svg11.dtd">

<svg xmlns="http://www.w3.org/2000/svg" xmlns:xlink="http://www.w3.org/1999/xlink" xmlns:xs="http://www.w3.org/2001/XMLSchema" xmlns:wb="http://www.ti.com/webench" version="1.1" width="100%" height="100%" viewBox="0 0 1390.0 680.0" preserveAspectRatio="xMidYMid meet">
  <defs>
    <g id="WB_CONTINUATION">
      <circle xmlns="" opacity="0.01" fill="#ffffff" stroke="#000000" stroke-width="0" cx="0" cy="0" r="14" />
      <line fill="none" stroke="#CC0000" stroke-width="2" x1="0" y1="10" x2="0" y2="-10" />
      <line fill="none" stroke="#CC0000" stroke-width="2" x1="-10" y1="-10" x2="10" y2="-10" />
    </g>
    <g id="WB_PWL_CURRENT_LOAD">
      <circle xmlns="" opacity="0.01" fill="#ffffff" stroke="#000000" stroke-width="0" cx="0" cy="0" r="14" />
      <circle fill-opacity="0.01" fill="#CC0000" stroke="#CC0000" stroke-width="2" cx="0" cy="0" r="14" />
      <line y1="0" x2="-20" stroke="#CC0000" x1="-30" fill="none" stroke-width="2" y2="0" />
      <line y1="0" x2="20" stroke="#CC0000" x1="30" fill="none" stroke-width="2" y2="0" />
      <polyline stroke="#CC0000" points="-7,6 4,8  " stroke-linejoin="round" fill="none" stroke-width="2" stroke-linecap="round" />
      <polyline stroke="#CC0000" points="-7,-6 4,-8  " stroke-linejoin="round" fill="none" stroke-width="2" stroke-linecap="round" />
      <polyline stroke="#CC0000" points="-20,0 -15,0  " stroke-linejoin="round" fill="none" stroke-width="2" stroke-linecap="round" />
      <polyline stroke="#CC0000" points="20,0 15,0  " stroke-linejoin="round" fill="none" stroke-width="2" stroke-linecap="round" />
      <polyline stroke="#CC0000" points="-7,-6 -7,6  " stroke-linejoin="round" fill="none" stroke-width="2" stroke-linecap="round" />
      <polyline stroke="#CC0000" points="4,-8 4,-11  " stroke-linejoin="round" fill="none" stroke-width="2" stroke-linecap="round" />
      <polyline stroke="#CC0000" points="4,8 4,11  " stroke-linejoin="round" fill="none" stroke-width="2" stroke-linecap="round" />
      <line x1="23" y1="-13" x2="23" y2="-7" stroke="#CC0000" fill="none" stroke-width="2" stroke-linecap="round" />
      <line x1="-23" y1="-13" x2="-23" y2="-7" stroke="#CC0000" fill="none" stroke-width="2" stroke-linecap="round" />
      <line x1="-26" y1="-10" x2="-20" y2="-10" stroke="#CC0000" fill="none" stroke-width="2" stroke-linecap="round" />
    </g>
    <g id="WB_BLOCK_IO">
      <circle xmlns="" opacity="0.01" fill="#ffffff" stroke="#000000" stroke-width="0" cx="0" cy="0" r="14" />
      <line stroke="#CC0000" fill="none" stroke-width="2" x1="-5" y1="0" x2="5" y2="0" />
    </g>
    <g id="WB_RESISTOR">
      <circle xmlns="" opacity="0.01" fill="#ffffff" stroke="#000000" stroke-width="0" cx="0" cy="0" r="14" />
      <polyline fill="none" stroke="#115566" stroke-width="2" stroke-linecap="round" stroke-linejoin="round" points="30,0 20,0 15,-6 7.5,6 0,-6 -7.5,6 -15,-6 -20,0 -30,0" />
    </g>
    <g id="WB_STARTUP_VOLTAGE_SOURCE">
      <circle xmlns="" opacity="0.01" fill="#ffffff" stroke="#000000" stroke-width="0" cx="0" cy="0" r="14" />
      <circle fill-opacity="0.01" fill="#CC0000" stroke="#CC0000" stroke-width="2" cx="0" cy="0" r="14" />
      <polyline fill="none" stroke="#CC0000" stroke-width="2" points="-6,-11 -6,7 5,9 5,12 " />
      <line fill="none" stroke="#CC0000" stroke-width="2" x1="16" y1="-12" x2="16" y2="-18" />
      <line fill="none" stroke="#CC0000" stroke-width="2" x1="-17" y1="-12" x2="-17" y2="-18" />
      <line fill="none" stroke="#CC0000" stroke-width="2" x1="-14" y1="-15" x2="-20" y2="-15" />
      <line fill="none" stroke="#CC0000" stroke-width="2" x1="-15" y1="0" x2="-30" y2="0" />
      <line fill="none" stroke="#CC0000" stroke-width="2" x1="30" y1="0" x2="15" y2="0" />
    </g>
    <g id="WB_SOURCE_RESISTOR">
      <circle xmlns="" opacity="0.01" fill="#ffffff" stroke="#000000" stroke-width="0" cx="0" cy="0" r="14" />
      <polyline fill="none" stroke="#CC0000" stroke-width="2" stroke-linecap="round" stroke-linejoin="round" points="30,0 20,0 15,-6 7.5,6 0,-6 -7.5,6 -15,-6 -20,0 -30,0" />
    </g>
    <g id="WB_PRIM_STARTUP_VOLTAGE_SOURCE">
      <circle xmlns="" opacity="0.01" fill="#ffffff" stroke="#000000" stroke-width="0" cx="0" cy="0" r="14" />
      <circle fill-opacity="0.01" fill="#CC0000" stroke="#CC0000" stroke-width="2" cx="0" cy="0" r="14" />
      <polyline fill="none" stroke="#CC0000" stroke-width="2" points="-6,-11 -6,7 5,9 5,12 " />
      <line fill="none" stroke="#CC0000" stroke-width="2" x1="16" y1="-12" x2="16" y2="-18" />
      <line fill="none" stroke="#CC0000" stroke-width="2" x1="-17" y1="-12" x2="-17" y2="-18" />
      <line fill="none" stroke="#CC0000" stroke-width="2" x1="-14" y1="-15" x2="-20" y2="-15" />
      <line fill="none" stroke="#CC0000" stroke-width="2" x1="-15" y1="0" x2="-30" y2="0" />
      <line fill="none" stroke="#CC0000" stroke-width="2" x1="30" y1="0" x2="15" y2="0" />
    </g>
    <g id="WB_GND">
      <circle xmlns="" opacity="0.01" fill="#ffffff" stroke="#000000" stroke-width="0" cx="0" cy="0" r="14" />
      <line fill="none" stroke="black" stroke-width="2" x1="0" y1="-10" x2="0" y2="0" />
      <line fill="none" stroke="black" stroke-width="2" x1="-13" y1="0" x2="13" y2="0" />
      <line fill="none" stroke="black" stroke-width="2" x1="-9" y1="4" x2="9" y2="4" />
      <line fill="none" stroke="black" stroke-width="2" x1="-3" y1="8" x2="3" y2="8" />
    </g>
    <g id="WB_N_MOSFET">
      <circle xmlns="" opacity="0.01" fill="#ffffff" stroke="#000000" stroke-width="0" cx="0" cy="0" r="14" />
      <line y1="0" x2="-5" stroke="#115566" x1="-15" fill="none" stroke-width="2" y2="0" />
      <line y1="-30" x2="15" stroke="#115566" x1="15" fill="none" stroke-width="2" y2="-20" />
      <line y1="30" x2="15" stroke="#115566" x1="15" fill="none" stroke-width="2" y2="20" />
      <polyline stroke="#115566" points="4,-10 4,10  " stroke-linejoin="round" fill="none" stroke-width="2" stroke-linecap="round" />
      <polyline stroke="#115566" points="15,-10 15,-8  " stroke-linejoin="round" fill="none" stroke-width="2" stroke-linecap="round" />
      <polyline stroke="#115566" points="15,-8 5,-8  " stroke-linejoin="round" fill="none" stroke-width="2" stroke-linecap="round" />
      <polyline stroke="#115566" points="11,0 15,0  " stroke-linejoin="round" fill="none" stroke-width="2" stroke-linecap="round" />
      <polyline stroke="#115566" points="15,0 15,10  " stroke-linejoin="round" fill="none" stroke-width="2" stroke-linecap="round" />
      <polyline stroke="#115566" points="5,8 14,8  " stroke-linejoin="round" fill="none" stroke-width="2" stroke-linecap="round" />
      <polyline stroke="#115566" points="15,-10 15,-8  " stroke-linejoin="round" fill="none" stroke-width="2" stroke-linecap="round" />
      <polyline stroke="#115566" points="15,-8 4,-8  " stroke-linejoin="round" fill="none" stroke-width="2" stroke-linecap="round" />
      <polyline stroke="#115566" points="4,-10 4,10  " stroke-linejoin="round" fill="none" stroke-width="2" stroke-linecap="round" />
      <polyline stroke="#115566" points="4,8 15,8  " stroke-linejoin="round" fill="none" stroke-width="2" stroke-linecap="round" />
      <polyline stroke="#115566" points="4,0 9,-5  " stroke-linejoin="round" fill="none" stroke-width="2" stroke-linecap="round" />
      <polyline stroke="#115566" points="9,-5 9,5  " stroke-linejoin="round" fill="none" stroke-width="2" stroke-linecap="round" />
      <polyline stroke="#115566" points="9,5 4,0  " stroke-linejoin="round" fill="none" stroke-width="2" stroke-linecap="round" />
      <polyline stroke="#115566" points="9,0 15,0  " stroke-linejoin="round" fill="none" stroke-width="2" stroke-linecap="round" />
      <polyline stroke="#115566" points="15,0 15,10  " stroke-linejoin="round" fill="none" stroke-width="2" stroke-linecap="round" />
      <polyline stroke="#115566" points="-5,0 0,0  " stroke-linejoin="round" fill="none" stroke-width="2" stroke-linecap="round" />
      <polyline stroke="#115566" points="0,10 0,-10  " stroke-linejoin="round" fill="none" stroke-width="2" stroke-linecap="round" />
      <polyline stroke="#115566" points="15,-20 15,-10  " stroke-linejoin="round" fill="none" stroke-width="2" stroke-linecap="round" />
      <polyline stroke="#115566" points="15,10 15,20  " stroke-linejoin="round" fill="none" stroke-width="2" stroke-linecap="round" />
    </g>
    <g id="WB_CAPACITOR">
      <circle xmlns="" opacity="0.01" fill="#ffffff" stroke="#000000" stroke-width="0" cx="0" cy="0" r="14" />
      <line y1="0" x2="20" stroke="#115566" x1="30" fill="none" stroke-width="2" y2="0" />
      <line y1="0" x2="-20" stroke="#115566" x1="-30" fill="none" stroke-width="2" y2="0" />
      <polyline stroke="#115566" points="3,12 3,-12  " stroke-linejoin="round" fill="none" stroke-width="2" stroke-linecap="round" />
      <polyline stroke="#115566" points="-20,0 -3,0  " stroke-linejoin="round" fill="none" stroke-width="2" stroke-linecap="round" />
      <polyline stroke="#115566" points="3,0 20,0  " stroke-linejoin="round" fill="none" stroke-width="2" stroke-linecap="round" />
      <polyline stroke="#115566" points="-3,12 -3,-12  " stroke-linejoin="round" fill="none" stroke-width="2" stroke-linecap="round" />
    </g>
    <g id="WB_TPS40305">
      <circle xmlns="" opacity="0.01" fill="#ffffff" stroke="#000000" stroke-width="0" cx="0" cy="0" r="14" />
      <rect width="180" height="330" x="-90" y="-165" stroke="#000000" stroke-width="4" fill="#F2F2F2" stroke-linecap="round" stroke-linejoin="round" />
      <text id="partNumber_label" x="0" y="-24" style="font-family:arial;font-weight:bold;font-size:16;text-anchor:middle;">TPS40305</text>
      <line fill="none" stroke="#000000" stroke-width="2" stroke-linecap="round" stroke-linejoin="round" x1="-100" y1="-150" x2="-90" y2="-150" />
      <text id="1" x="-84" y="-146" style="font-family:arial;font-weight:normal;font-size:11;text-anchor:start;">VDD</text>
      <line fill="none" stroke="#000000" stroke-width="2" stroke-linecap="round" stroke-linejoin="round" x1="-100" y1="30" x2="-90" y2="30" />
      <text id="2" x="-84" y="34" style="font-family:arial;font-weight:normal;font-size:11;text-anchor:start;">SS</text>
      <line fill="none" stroke="#000000" stroke-width="2" stroke-linecap="round" stroke-linejoin="round" x1="100" y1="-90" x2="90" y2="-90" />
      <text id="3" x="84" y="-86" style="font-family:arial;font-weight:normal;font-size:11;text-anchor:end;">PGOOD</text>
      <line fill="none" stroke="#000000" stroke-width="2" stroke-linecap="round" stroke-linejoin="round" x1="-100" y1="90" x2="-90" y2="90" />
      <text id="4" x="-84" y="94" style="font-family:arial;font-weight:normal;font-size:11;text-anchor:start;">COMP</text>
      <line fill="none" stroke="#000000" stroke-width="2" stroke-linecap="round" stroke-linejoin="round" x1="-100" y1="150" x2="-90" y2="150" />
      <text id="5" x="-84" y="154" style="font-family:arial;font-weight:normal;font-size:11;text-anchor:start;">FB</text>
      <line fill="none" stroke="#000000" stroke-width="2" stroke-linecap="round" stroke-linejoin="round" x1="100" y1="30" x2="90" y2="30" />
      <text id="6" x="84" y="34" style="font-family:arial;font-weight:normal;font-size:11;text-anchor:end;">BOOT</text>
      <line fill="none" stroke="#000000" stroke-width="2" stroke-linecap="round" stroke-linejoin="round" x1="100" y1="-150" x2="90" y2="-150" />
      <text id="7" x="84" y="-146" style="font-family:arial;font-weight:normal;font-size:11;text-anchor:end;">HDRV</text>
      <line fill="none" stroke="#000000" stroke-width="2" stroke-linecap="round" stroke-linejoin="round" x1="100" y1="90" x2="90" y2="90" />
      <text id="8" x="84" y="94" style="font-family:arial;font-weight:normal;font-size:11;text-anchor:end;">SW</text>
      <line fill="none" stroke="#000000" stroke-width="2" stroke-linecap="round" stroke-linejoin="round" x1="100" y1="140" x2="90" y2="140" />
      <text id="9" x="84" y="144" style="font-family:arial;font-weight:normal;font-size:11;text-anchor:end;">LDRV</text>
      <line fill="none" stroke="#000000" stroke-width="2" stroke-linecap="round" stroke-linejoin="round" x1="100" y1="-30" x2="90" y2="-30" />
      <text id="10" x="84" y="-26" style="font-family:arial;font-weight:normal;font-size:11;text-anchor:end;">BP</text>
      <line fill="none" stroke="#000000" stroke-width="2" stroke-linecap="round" stroke-linejoin="round" x1="0" y1="175" x2="0" y2="165" />
      <text id="11" x="0" y="160" style="font-family:arial;font-weight:normal;font-size:11;text-anchor:middle;">GND</text>
    </g>
    <g id="WB_PRIM_AC_VOLTAGE_SOURCE">
      <circle xmlns="" opacity="0.01" fill="#ffffff" stroke="#000000" stroke-width="0" cx="0" cy="0" r="14" />
      <circle fill-opacity="0.01" fill="#CC0000" stroke="#CC0000" stroke-width="2" cx="0" cy="0" r="14" />
      <line y1="0" x2="-20" stroke="#CC0000" x1="-30" fill="none" stroke-width="2" y2="0" />
      <line y1="0" x2="20" stroke="#CC0000" x1="30" fill="none" stroke-width="2" y2="0" />
      <polyline stroke="#CC0000" points="-20,0 -15,0  " stroke-linejoin="round" fill="none" stroke-width="2" stroke-linecap="round" />
      <polyline stroke="#CC0000" points="20,0 15,0  " stroke-linejoin="round" fill="none" stroke-width="2" stroke-linecap="round" />
      <path stroke="#CC0000" d="M0,10A5,5 0 0,1 0,0 " fill="none" stroke-width="2" stroke-linecap="round" />
      <path stroke="#CC0000" d="M0-10A5,5 0 1,1 0,0 " fill="none" stroke-width="2" stroke-linecap="round" />
      <line x1="23" y1="-13" x2="23" y2="-7" stroke="#CC0000" fill="none" stroke-width="2" stroke-linecap="round" />
      <line x1="-23" y1="-13" x2="-23" y2="-7" stroke="#CC0000" fill="none" stroke-width="2" stroke-linecap="round" />
      <line x1="-26" y1="-10" x2="-20" y2="-10" stroke="#CC0000" fill="none" stroke-width="2" stroke-linecap="round" />
    </g>
    <g id="WB_PRIMITIVE_CAPACITOR">
      <circle xmlns="" opacity="0.01" fill="#ffffff" stroke="#000000" stroke-width="0" cx="0" cy="0" r="14" />
      <line y1="0" x2="20" stroke="#CC0000" x1="30" fill="none" stroke-width="2" y2="0" />
      <line y1="0" x2="-20" stroke="#CC0000" x1="-30" fill="none" stroke-width="2" y2="0" />
      <polyline stroke="#CC0000" points="3,12 3,-12  " stroke-linejoin="round" fill="none" stroke-width="2" stroke-linecap="round" />
      <polyline stroke="#CC0000" points="-20,0 -3,0  " stroke-linejoin="round" fill="none" stroke-width="2" stroke-linecap="round" />
      <polyline stroke="#CC0000" points="3,0 20,0  " stroke-linejoin="round" fill="none" stroke-width="2" stroke-linecap="round" />
      <polyline stroke="#CC0000" points="-3,12 -3,-12  " stroke-linejoin="round" fill="none" stroke-width="2" stroke-linecap="round" />
    </g>
    <g id="WB_PRIMITIVE_INDUCTOR">
      <circle xmlns="" opacity="0.01" fill="#ffffff" stroke="#000000" stroke-width="0" cx="0" cy="0" r="14" />
      <path fill="none" stroke="#CC0000" stroke-width="2" stroke-linecap="round" stroke-linejoin="round" d="M-10,0c0-0.6-0.2-1.8-0.6-3.3c-0.5-2.4-2-3.7-4.4-4c-2.4,0.3-3.8,1.6-4.3,4c-0.6,2.3-0.8,3.6-0.7,3M-20,0H-30" />
      <path fill="none" stroke="#CC0000" stroke-width="2" stroke-linecap="round" stroke-linejoin="round" d="M0,0c0-0.6-0.2-1.8-0.6-3.3c-0.5-2.4-2-3.7-4.4-4c-2.4,0.3-3.8,1.6-4.3,4c-0.6,2.3-0.8,3.6-0.7,4" />
      <path fill="none" stroke="#CC0000" stroke-width="2" stroke-linecap="round" stroke-linejoin="round" d="M10,0c0-0.6-0.2-1.8-0.6-3.3c-0.5-2.4-2-3.7-4.4-4c-2.4,0.3-3.8,1.6-4.3,4c-0.6,2.3-0.8,3.6-0.7,4" />
      <path fill="none" stroke="#CC0000" stroke-width="2" stroke-linecap="round" stroke-linejoin="round" d="M30,0H20c0-0.6-0.2-1.8-0.6-3.3c-0.5-2.4-2-3.7-4.4-4c-2.4,0.3-3.8,1.6-4.3,4c-0.6,2.3-0.8,3.6-0.7,4" />
      <path fill="none" stroke="#CC0000" stroke-width="2" stroke-linecap="round" stroke-linejoin="round" d=" M10,0 c0.1,0.4,0.1,0.6,0,0.7" />
      <path fill="none" stroke="#CC0000" stroke-width="2" stroke-linecap="round" stroke-linejoin="round" d=" M0,0  c0.1,0.4,0.1,0.6,0,0.7" />
      <path fill="none" stroke="#CC0000" stroke-width="2" stroke-linecap="round" stroke-linejoin="round" d=" M-10,0c0.1,0.4,0.1,0.6,0,0.7" />
    </g>
    <g id="WB_CAP_POLARIZED">
      <circle xmlns="" opacity="0.01" fill="#ffffff" stroke="#000000" stroke-width="0" cx="0" cy="0" r="14" />
      <path fill="none" stroke="#115566" stroke-width="2" stroke-linecap="round" stroke-linejoin="round" d="M-6.5,12c0.2,0,1.1 -1,2.5 -3c1.5 -2,2.3 -5,2.5 -9c-0.2 -4 -1 -7 -2.5 -9c-1.4 -2 -2.3 -3 -2.5 -3" />
      <line fill="none" stroke="#115566" stroke-width="2" x1="4" y1="13" x2="4" y2="-13" />
      <line fill="none" stroke="#115566" stroke-width="2" x1="-30" y1="0" x2="-2" y2="0" />
      <line fill="none" stroke="#115566" stroke-width="2" x1="4" y1="0" x2="30" y2="0" />
      <line fill="none" stroke="#115566" stroke-width="2" x1="14" y1="10" x2="14" y2="6" />
      <line fill="none" stroke="#115566" stroke-width="2" x1="12" y1="8" x2="16" y2="8" />
    </g>
    <g id="WB_INDUCTOR">
      <circle xmlns="" opacity="0.01" fill="#ffffff" stroke="#000000" stroke-width="0" cx="0" cy="0" r="14" />
      <path fill="none" stroke="#115566" stroke-width="2" stroke-linecap="round" stroke-linejoin="round" d="M-10,0c0-0.6-0.2-1.8-0.6-3.3c-0.5-2.4-2-3.7-4.4-4c-2.4,0.3-3.8,1.6-4.3,4c-0.6,2.3-0.8,3.6-0.7,3M-20,0H-30" />
      <path fill="none" stroke="#115566" stroke-width="2" stroke-linecap="round" stroke-linejoin="round" d="M0,0c0-0.6-0.2-1.8-0.6-3.3c-0.5-2.4-2-3.7-4.4-4c-2.4,0.3-3.8,1.6-4.3,4c-0.6,2.3-0.8,3.6-0.7,4" />
      <path fill="none" stroke="#115566" stroke-width="2" stroke-linecap="round" stroke-linejoin="round" d="M10,0c0-0.6-0.2-1.8-0.6-3.3c-0.5-2.4-2-3.7-4.4-4c-2.4,0.3-3.8,1.6-4.3,4c-0.6,2.3-0.8,3.6-0.7,4" />
      <path fill="none" stroke="#115566" stroke-width="2" stroke-linecap="round" stroke-linejoin="round" d="M30,0H20c0-0.6-0.2-1.8-0.6-3.3c-0.5-2.4-2-3.7-4.4-4c-2.4,0.3-3.8,1.6-4.3,4c-0.6,2.3-0.8,3.6-0.7,4" />
      <path fill="none" stroke="#115566" stroke-width="2" stroke-linecap="round" stroke-linejoin="round" d=" M10,0 c0.1,0.4,0.1,0.6,0,0.7" />
      <path fill="none" stroke="#115566" stroke-width="2" stroke-linecap="round" stroke-linejoin="round" d=" M0,0  c0.1,0.4,0.1,0.6,0,0.7" />
      <path fill="none" stroke="#115566" stroke-width="2" stroke-linecap="round" stroke-linejoin="round" d=" M-10,0c0.1,0.4,0.1,0.6,0,0.7" />
    </g>
    <g id="WB_VOLTAGE_PROBE">
      <circle xmlns="" opacity="0.01" fill="#ffffff" stroke="#000000" stroke-width="0" cx="0" cy="0" r="14" />
      <rect stroke-width="1" width="20" stroke="#CC0000" x="-10" height="19.5" y="-30" fill="#CC0000" fill-opacity="0.01" />
      <polyline stroke="#CC0000" points="7,-27 4,-22 3,-26 0,-18 -1,-22 -5,-14  " stroke-linejoin="round" fill="none" stroke-width="2" stroke-linecap="round" />
      <line y1="0" x2="0" stroke="#CC0000" x1="0" fill="none" stroke-width="2" y2="-10" />
    </g>
    <g id="WB_PWL_VOLTAGE_SOURCE">
      <circle xmlns="" opacity="0.01" fill="#ffffff" stroke="#000000" stroke-width="0" cx="0" cy="0" r="14" />
      <circle fill-opacity="0.01" fill="#CC0000" stroke="#CC0000" stroke-width="2" cx="0" cy="0" r="14" />
      <line y1="0" x2="-20" stroke="#CC0000" x1="-30" fill="none" stroke-width="2" y2="0" />
      <line y1="0" x2="20" stroke="#CC0000" x1="30" fill="none" stroke-width="2" y2="0" />
      <polyline stroke="#CC0000" points="-7,6 4,8  " stroke-linejoin="round" fill="none" stroke-width="2" stroke-linecap="round" />
      <polyline stroke="#CC0000" points="-7,-6 4,-8  " stroke-linejoin="round" fill="none" stroke-width="2" stroke-linecap="round" />
      <polyline stroke="#CC0000" points="-20,0 -15,0  " stroke-linejoin="round" fill="none" stroke-width="2" stroke-linecap="round" />
      <polyline stroke="#CC0000" points="20,0 15,0  " stroke-linejoin="round" fill="none" stroke-width="2" stroke-linecap="round" />
      <polyline stroke="#CC0000" points="-7,-6 -7,6  " stroke-linejoin="round" fill="none" stroke-width="2" stroke-linecap="round" />
      <polyline stroke="#CC0000" points="4,-8 4,-11  " stroke-linejoin="round" fill="none" stroke-width="2" stroke-linecap="round" />
      <polyline stroke="#CC0000" points="4,8 4,11  " stroke-linejoin="round" fill="none" stroke-width="2" stroke-linecap="round" />
      <line x1="23" y1="-13" x2="23" y2="-7" stroke="#CC0000" fill="none" stroke-width="2" stroke-linecap="round" />
      <line x1="-23" y1="-13" x2="-23" y2="-7" stroke="#CC0000" fill="none" stroke-width="2" stroke-linecap="round" />
      <line x1="-26" y1="-10" x2="-20" y2="-10" stroke="#CC0000" fill="none" stroke-width="2" stroke-linecap="round" />
    </g>
    <g id="WB_PRIM_PWL_VOLTAGE_SOURCE">
      <circle xmlns="" opacity="0.01" fill="#ffffff" stroke="#000000" stroke-width="0" cx="0" cy="0" r="14" />
      <circle fill-opacity="0.01" fill="#CC0000" stroke="#CC0000" stroke-width="2" cx="0" cy="0" r="14" />
      <line x1="-30" y1="0" x2="-15" y2="0" stroke="#CC0000" fill="none" stroke-width="2" />
      <line x1="30" y1="0" x2="15" y2="0" stroke="#CC0000" fill="none" stroke-width="2" />
      <polyline stroke="#CC0000" points="0,13 0,8 -7,6 -7,0 7,-4 0,-8 0,-13" stroke-linejoin="round" fill="none" stroke-width="2" stroke-linecap="round" />
      <line x1="23" y1="-13" x2="23" y2="-7" stroke="#CC0000" fill="none" stroke-width="2" stroke-linecap="round" />
      <line x1="-23" y1="-13" x2="-23" y2="-7" stroke="#CC0000" fill="none" stroke-width="2" stroke-linecap="round" />
      <line x1="-26" y1="-10" x2="-20" y2="-10" stroke="#CC0000" fill="none" stroke-width="2" stroke-linecap="round" />
    </g>
    <g id="WB_CURRENT_PROBE">
      <circle xmlns="" opacity="0.01" fill="#ffffff" stroke="#000000" stroke-width="0" cx="0" cy="0" r="14" />
      <line stroke="#CC0000" stroke-width="2" stroke-linecap="square" stroke-linejoin="round" x1="-16" y1="0" x2="-10" y2="0" />
      <polyline stroke="#CC0000" stroke-width="2" stroke-linecap="square" stroke-linejoin="round" points="6,0 3,-3.5 3,3.5 6,0 -6,0 " />
      <line stroke="#CC0000" stroke-width="2" stroke-linecap="square" stroke-linejoin="round" x1="10" y1="0" x2="16" y2="0" />
      <rect stroke-width="1" x="-9.5" y="-7" fill="none" stroke="#CC0000" width="19" height="14" />
    </g>
    <g id="WB_LOAD_RESISTOR">
      <circle xmlns="" opacity="0.01" fill="#ffffff" stroke="#000000" stroke-width="0" cx="0" cy="0" r="14" />
      <polyline fill="none" stroke="#CC0000" stroke-width="2" stroke-linecap="round" stroke-linejoin="round" points="30,0 20,0 15,-6 7.5,6 0,-6 -7.5,6 -15,-6 -20,0 -30,0" />
    </g>
    <g id="WB_PRIMITIVE_BATTERY">
      <circle xmlns="" opacity="0.01" fill="#ffffff" stroke="#000000" stroke-width="0" cx="0" cy="0" r="14" />
      <line fill="none" stroke="#CC0000" stroke-width="2" x1="-8" y1="0" x2="-30" y2="0" />
      <line fill="none" stroke="#CC0000" stroke-width="2" x1="-7" y1="12" x2="-7" y2="-12" />
      <line fill="none" stroke="#CC0000" stroke-width="2" x1="4" y1="12" x2="4" y2="-12" />
      <line fill="none" stroke="#CC0000" stroke-width="2" x1="30" y1="0" x2="11" y2="0" />
      <line fill="none" stroke="#CC0000" stroke-width="2" x1="-2" y1="5" x2="-2" y2="-5" />
      <line fill="none" stroke="#CC0000" stroke-width="2" x1="-1" y1="5" x2="-1" y2="-5" />
      <line fill="none" stroke="#CC0000" stroke-width="2" x1="-14" y1="-9" x2="-14" y2="-15" />
      <line fill="none" stroke="#CC0000" stroke-width="2" x1="-11" y1="-12" x2="-17" y2="-12" />
      <line fill="none" stroke="#CC0000" stroke-width="2" x1="13" y1="-10" x2="13" y2="-15" />
      <line fill="none" stroke="#CC0000" stroke-width="2" x1="10" y1="5" x2="10" y2="-5" />
      <line fill="none" stroke="#CC0000" stroke-width="2" x1="9" y1="5" x2="9" y2="-5" />
    </g>
    <g id="WB_BATTERY">
      <circle xmlns="" opacity="0.01" fill="#ffffff" stroke="#000000" stroke-width="0" cx="0" cy="0" r="14" />
      <line fill="none" stroke="#CC0000" stroke-width="2" x1="-8" y1="0" x2="-30" y2="0" />
      <line fill="none" stroke="#CC0000" stroke-width="2" x1="-7" y1="12" x2="-7" y2="-12" />
      <line fill="none" stroke="#CC0000" stroke-width="2" x1="4" y1="12" x2="4" y2="-12" />
      <line fill="none" stroke="#CC0000" stroke-width="2" x1="30" y1="0" x2="11" y2="0" />
      <line fill="none" stroke="#CC0000" stroke-width="2" x1="-2" y1="5" x2="-2" y2="-5" />
      <line fill="none" stroke="#CC0000" stroke-width="2" x1="-1" y1="5" x2="-1" y2="-5" />
      <line fill="none" stroke="#CC0000" stroke-width="2" x1="-14" y1="-9" x2="-14" y2="-15" />
      <line fill="none" stroke="#CC0000" stroke-width="2" x1="-11" y1="-12" x2="-17" y2="-12" />
      <line fill="none" stroke="#CC0000" stroke-width="2" x1="13" y1="-10" x2="13" y2="-15" />
      <line fill="none" stroke="#CC0000" stroke-width="2" x1="10" y1="5" x2="10" y2="-5" />
      <line fill="none" stroke="#CC0000" stroke-width="2" x1="9" y1="5" x2="9" y2="-5" />
    </g>
  </defs>
  <use id="Cin" class="comp" xlink:href="#WB_CAPACITOR" x="175.0" y="220.0" transform="rotate(-90, 175.0, 220.0)" cap="47uF" partNo="GRM32ER61C476KE15L" thermalId="1210_280" esr="3.037mOhm" manufacturer="MuRata" />
  <text for="Cin" x="190.0" y="220.0" style="font-family:arial;font-size:13px;stroke-width:0.5;stroke:#115566;fill:#115566;">Cin</text>
  <text for="Cin" x="190.0" y="230.0" style="font-family:arial;font-size:10px;stroke-width:0.1;stroke:#CC0000;fill:#CC0000;">47uF</text>
  <text for="Cin" x="190.0" y="240.0" style="font-family:arial;font-size:10px;stroke-width:0.1;stroke:#CC0000;fill:#CC0000;">3.037mOhm</text>
  <text for="Cin" x="190.0" y="250.0" style="font-family:arial;font-size:10px;stroke-width:0.1;stroke:#CC0000;fill:#CC0000;">Qty=3</text>
  <use id="GND3" class="other" xlink:href="#WB_GND" x="1075.0" y="540.0" />
  <use id="Css" class="comp" xlink:href="#WB_CAPACITOR" x="175.0" y="400.0" transform="rotate(-90, 175.0, 400.0)" cap="3.3nF" partNo="GRM033R71A332KA01D" thermalId="0201" esr="1mOhm" manufacturer="MuRata" />
  <text for="Css" x="190.0" y="400.0" style="font-family:arial;font-size:13px;stroke-width:0.5;stroke:#115566;fill:#115566;">Css</text>
  <text for="Css" x="190.0" y="410.0" style="font-family:arial;font-size:10px;stroke-width:0.1;stroke:#CC0000;fill:#CC0000;">3.3nF</text>
  <text for="Css" x="190.0" y="420.0" style="font-family:arial;font-size:10px;stroke-width:0.1;stroke:#CC0000;fill:#CC0000;">1mOhm</text>
  <use id="GND4" class="other" xlink:href="#WB_GND" x="215.0" y="330.0" />
  <use id="Coutx" class="comp" xlink:href="#WB_CAPACITOR" x="1195.0" y="430.0" transform="rotate(-90, 1195.0, 430.0)" cap="100uF" partNo="C1206C107M9PACTU" thermalId="1206" esr="1mOhm" manufacturer="Kemet" />
  <text for="Coutx" x="1210.0" y="430.0" style="font-family:arial;font-size:13px;stroke-width:0.5;stroke:#115566;fill:#115566;">Coutx</text>
  <text for="Coutx" x="1210.0" y="440.0" style="font-family:arial;font-size:10px;stroke-width:0.1;stroke:#CC0000;fill:#CC0000;">100uF</text>
  <text for="Coutx" x="1210.0" y="450.0" style="font-family:arial;font-size:10px;stroke-width:0.1;stroke:#CC0000;fill:#CC0000;">1mOhm</text>
  <use id="GND5" class="other" xlink:href="#WB_GND" x="725.0" y="380.0" />
  <use id="Rcomp2" class="comp" xlink:href="#WB_RESISTOR" x="955.0" y="340.0" transform="rotate(-90, 955.0, 340.0)" partNo="CRCW04021K33FKED" thermalId="0402" resistance="1.33kOhm" manufacturer="Vishay-Dale" />
  <text for="Rcomp2" x="970.0" y="340.0" style="font-family:arial;font-size:13px;stroke-width:0.5;stroke:#115566;fill:#115566;">Rcomp2</text>
  <text for="Rcomp2" x="970.0" y="350.0" style="font-family:arial;font-size:10px;stroke-width:0.1;stroke:#CC0000;fill:#CC0000;">1.33kOhm</text>
  <use id="GND" class="other" xlink:href="#WB_GND" x="705.0" y="560.0" />
  <use id="Ccomp3" class="comp" xlink:href="#WB_CAPACITOR" x="955.0" y="400.0" transform="rotate(-90, 955.0, 400.0)" cap="470pF" partNo="CL21C471JBANNNC" thermalId="0805" esr="0Ohm" manufacturer="Samsung Electro-Mechanics" />
  <text for="Ccomp3" x="970.0" y="400.0" style="font-family:arial;font-size:13px;stroke-width:0.5;stroke:#115566;fill:#115566;">Ccomp3</text>
  <text for="Ccomp3" x="970.0" y="410.0" style="font-family:arial;font-size:10px;stroke-width:0.1;stroke:#CC0000;fill:#CC0000;">470pF</text>
  <text for="Ccomp3" x="970.0" y="420.0" style="font-family:arial;font-size:10px;stroke-width:0.1;stroke:#CC0000;fill:#CC0000;">0Ohm</text>
  <use id="Rcomp" class="comp" xlink:href="#WB_RESISTOR" x="305.0" y="530.0" transform="rotate(-90, 305.0, 530.0)" partNo="CRCW04023K83FKED" thermalId="0402" resistance="3.83kOhm" manufacturer="Vishay-Dale" />
  <text for="Rcomp" x="320.0" y="530.0" style="font-family:arial;font-size:13px;stroke-width:0.5;stroke:#115566;fill:#115566;">Rcomp</text>
  <text for="Rcomp" x="320.0" y="540.0" style="font-family:arial;font-size:10px;stroke-width:0.1;stroke:#CC0000;fill:#CC0000;">3.83kOhm</text>
  <use id="Cbyp" class="comp" xlink:href="#WB_CAPACITOR" x="725.0" y="340.0" transform="rotate(-90, 725.0, 340.0)" cap="10uF" partNo="LMK212BJ106KG-T" thermalId="0805" esr="1mOhm" manufacturer="Taiyo Yuden" />
  <text for="Cbyp" x="740.0" y="340.0" style="font-family:arial;font-size:13px;stroke-width:0.5;stroke:#115566;fill:#115566;">Cbyp</text>
  <text for="Cbyp" x="740.0" y="350.0" style="font-family:arial;font-size:10px;stroke-width:0.1;stroke:#CC0000;fill:#CC0000;">10uF</text>
  <text for="Cbyp" x="740.0" y="360.0" style="font-family:arial;font-size:10px;stroke-width:0.1;stroke:#CC0000;fill:#CC0000;">1mOhm</text>
  <use id="Cvcc" class="comp" xlink:href="#WB_CAPACITOR" x="315.0" y="250.0" transform="rotate(-90, 315.0, 250.0)" cap="1uF" partNo="TMK212BJ105KG-T" thermalId="0805" esr="1mOhm" manufacturer="Taiyo Yuden" />
  <text for="Cvcc" x="330.0" y="250.0" style="font-family:arial;font-size:13px;stroke-width:0.5;stroke:#115566;fill:#115566;">Cvcc</text>
  <text for="Cvcc" x="330.0" y="260.0" style="font-family:arial;font-size:10px;stroke-width:0.1;stroke:#CC0000;fill:#CC0000;">1uF</text>
  <text for="Cvcc" x="330.0" y="270.0" style="font-family:arial;font-size:10px;stroke-width:0.1;stroke:#CC0000;fill:#CC0000;">1mOhm</text>
  <use id="U1" class="comp" xlink:href="#WB_TPS40305" x="485.0" y="340.0" />
  <text for="U1" x="465.0" y="340.0" style="font-family:arial;font-size:13px;stroke-width:0.5;stroke:#115566;fill:#115566;">U1</text>
  <use id="Ccomp2" class="comp" xlink:href="#WB_CAPACITOR" x="235.0" y="510.0" transform="rotate(-270, 235.0, 510.0)" cap="180pF" partNo="C0805C181K5GACTU" thermalId="0805" esr="0Ohm" manufacturer="Kemet" />
  <text for="Ccomp2" x="250.0" y="510.0" style="font-family:arial;font-size:13px;stroke-width:0.5;stroke:#115566;fill:#115566;">Ccomp2</text>
  <text for="Ccomp2" x="250.0" y="520.0" style="font-family:arial;font-size:10px;stroke-width:0.1;stroke:#CC0000;fill:#CC0000;">180pF</text>
  <text for="Ccomp2" x="250.0" y="530.0" style="font-family:arial;font-size:10px;stroke-width:0.1;stroke:#CC0000;fill:#CC0000;">0Ohm</text>
  <use id="Rpgood" class="comp" xlink:href="#WB_RESISTOR" x="645.0" y="280.0" transform="rotate(-270, 645.0, 280.0)" partNo="CRCW0402100KFKED" thermalId="0402" resistance="100kOhm" manufacturer="Vishay-Dale" />
  <text for="Rpgood" x="660.0" y="280.0" style="font-family:arial;font-size:13px;stroke-width:0.5;stroke:#115566;fill:#115566;">Rpgood</text>
  <text for="Rpgood" x="660.0" y="290.0" style="font-family:arial;font-size:10px;stroke-width:0.1;stroke:#CC0000;fill:#CC0000;">100kOhm</text>
  <use id="GND6" class="other" xlink:href="#WB_GND" x="485.0" y="525.0" />
  <use id="Ccomp" class="comp" xlink:href="#WB_CAPACITOR" x="305.0" y="470.0" transform="rotate(-270, 305.0, 470.0)" cap="1.5nF" partNo="GRM2195C1H152JA01D" thermalId="0805" esr="0Ohm" manufacturer="MuRata" />
  <text for="Ccomp" x="320.0" y="470.0" style="font-family:arial;font-size:13px;stroke-width:0.5;stroke:#115566;fill:#115566;">Ccomp</text>
  <text for="Ccomp" x="320.0" y="480.0" style="font-family:arial;font-size:10px;stroke-width:0.1;stroke:#CC0000;fill:#CC0000;">1.5nF</text>
  <text for="Ccomp" x="320.0" y="490.0" style="font-family:arial;font-size:10px;stroke-width:0.1;stroke:#CC0000;fill:#CC0000;">0Ohm</text>
  <use id="Rfbt" class="comp" xlink:href="#WB_RESISTOR" x="1035.0" y="370.0" transform="rotate(-90, 1035.0, 370.0)" partNo="RC0201FR-0710KL" thermalId="0201" resistance="10kOhm" manufacturer="Yageo" />
  <text for="Rfbt" x="1050.0" y="370.0" style="font-family:arial;font-size:13px;stroke-width:0.5;stroke:#115566;fill:#115566;">Rfbt</text>
  <text for="Rfbt" x="1050.0" y="380.0" style="font-family:arial;font-size:10px;stroke-width:0.1;stroke:#CC0000;fill:#CC0000;">10kOhm</text>
  <use id="M1" class="comp" xlink:href="#WB_N_MOSFET" x="800.0" y="190.0" partNo="CSD16340Q3" manufacturer="Texas Instruments" thermalId="DQG0008A" vdsmax="25V" idsmax="60Amps" />
  <text for="M1" x="780.0" y="175.0" style="font-family:arial;font-size:13px;stroke-width:0.5;stroke:#115566;fill:#115566;">M1</text>
  <text for="M1" x="780.0" y="210.0" style="font-family:arial;font-size:10px;stroke-width:0.1;stroke:#CC0000;fill:#CC0000;">25V</text>
  <text for="M1" x="780.0" y="220.0" style="font-family:arial;font-size:10px;stroke-width:0.1;stroke:#CC0000;fill:#CC0000;">60Amps</text>
  <use id="GND2" class="other" xlink:href="#WB_GND" x="175.0" y="440.0" />
  <use id="M2" class="comp" xlink:href="#WB_N_MOSFET" x="800.0" y="480.0" partNo="CSD17311Q5" manufacturer="Texas Instruments" thermalId="TRANS_NexFET_Q5" vdsmax="30V" idsmax="100Amps" />
  <text for="M2" x="780.0" y="465.0" style="font-family:arial;font-size:13px;stroke-width:0.5;stroke:#115566;fill:#115566;">M2</text>
  <text for="M2" x="780.0" y="500.0" style="font-family:arial;font-size:10px;stroke-width:0.1;stroke:#CC0000;fill:#CC0000;">30V</text>
  <text for="M2" x="780.0" y="510.0" style="font-family:arial;font-size:10px;stroke-width:0.1;stroke:#CC0000;fill:#CC0000;">100Amps</text>
  <use id="Rs" class="comp" xlink:href="#WB_RESISTOR" x="705.0" y="520.0" transform="rotate(-90, 705.0, 520.0)" partNo="CRCW04024K12FKED" thermalId="0402" resistance="4.12kOhm" manufacturer="Vishay-Dale" />
  <text for="Rs" x="720.0" y="520.0" style="font-family:arial;font-size:13px;stroke-width:0.5;stroke:#115566;fill:#115566;">Rs</text>
  <text for="Rs" x="720.0" y="530.0" style="font-family:arial;font-size:10px;stroke-width:0.1;stroke:#CC0000;fill:#CC0000;">4.12kOhm</text>
  <use id="L1" class="comp" xlink:href="#WB_INDUCTOR" x="875.0" y="310.0" partNo="FP1005R1-R15-R" thermalId="FP1005" l="150nH" dcr="390uOhm" manufacturer="Coiltronics" />
  <text for="L1" x="855.0" y="295.0" style="font-family:arial;font-size:13px;stroke-width:0.5;stroke:#115566;fill:#115566;">L1</text>
  <text for="L1" x="855.0" y="330.0" style="font-family:arial;font-size:10px;stroke-width:0.1;stroke:#CC0000;fill:#CC0000;">150nH</text>
  <text for="L1" x="855.0" y="340.0" style="font-family:arial;font-size:10px;stroke-width:0.1;stroke:#CC0000;fill:#CC0000;">390uOhm</text>
  <use id="GND1" class="other" xlink:href="#WB_GND" x="815.0" y="520.0" />
  <use id="Cout" class="comp" xlink:href="#WB_CAP_POLARIZED" x="1115.0" y="430.0" transform="rotate(-90, 1115.0, 430.0)" cap="220uF" partNo="2R5TPE220MAFB" thermalId="CAPSMT_6_B2S" esr="15mOhm" manufacturer="Panasonic" />
  <text for="Cout" x="1130.0" y="430.0" style="font-family:arial;font-size:13px;stroke-width:0.5;stroke:#115566;fill:#115566;">Cout</text>
  <text for="Cout" x="1130.0" y="440.0" style="font-family:arial;font-size:10px;stroke-width:0.1;stroke:#CC0000;fill:#CC0000;">220uF</text>
  <text for="Cout" x="1130.0" y="450.0" style="font-family:arial;font-size:10px;stroke-width:0.1;stroke:#CC0000;fill:#CC0000;">15mOhm</text>
  <use id="Cbst" class="comp" xlink:href="#WB_CAPACITOR" x="635.0" y="400.0" transform="rotate(-90, 635.0, 400.0)" cap="100nF" partNo="GRM155R71C104KA88D" thermalId="0402" esr="1mOhm" manufacturer="MuRata" />
  <text for="Cbst" x="650.0" y="400.0" style="font-family:arial;font-size:13px;stroke-width:0.5;stroke:#115566;fill:#115566;">Cbst</text>
  <text for="Cbst" x="650.0" y="410.0" style="font-family:arial;font-size:10px;stroke-width:0.1;stroke:#CC0000;fill:#CC0000;">100nF</text>
  <text for="Cbst" x="650.0" y="420.0" style="font-family:arial;font-size:10px;stroke-width:0.1;stroke:#CC0000;fill:#CC0000;">1mOhm</text>
  <use id="Rfbb" class="comp" xlink:href="#WB_RESISTOR" x="1035.0" y="490.0" transform="rotate(-90, 1035.0, 490.0)" partNo="CRCW04026K65FKED" thermalId="0402" resistance="6.65kOhm" manufacturer="Vishay-Dale" />
  <text for="Rfbb" x="1050.0" y="490.0" style="font-family:arial;font-size:13px;stroke-width:0.5;stroke:#115566;fill:#115566;">Rfbb</text>
  <text for="Rfbb" x="1050.0" y="500.0" style="font-family:arial;font-size:10px;stroke-width:0.1;stroke:#CC0000;fill:#CC0000;">6.65kOhm</text>
  <use id="Vin" class="other" xlink:href="#WB_BATTERY" x="100.0" y="180.0" transform="rotate(-270, 100.0, 180.0)" />
  <text for="Vin" x="115.0" y="180.0" style="font-family:arial;font-size:13px;stroke-width:0.5;stroke:#CC0000;fill:#CC0000;">Vin</text>
  <use id="Rload" class="other" xlink:href="#WB_LOAD_RESISTOR" x="1290.0" y="460.0" transform="rotate(-90, 1290.0, 460.0)" />
  <text for="Rload" x="1305.0" y="460.0" style="font-family:arial;font-size:13px;stroke-width:0.5;stroke:#CC0000;fill:#CC0000;">Rload</text>
  <line x1="1195.0" y1="400.0" x2="1195.0" y2="310.0" stroke="#000000" stroke-width="2" fill="none" />
  <line x1="1195.0" y1="530.0" x2="1195.0" y2="460.0" stroke="#000000" stroke-width="2" fill="none" />
  <line x1="1195.0" y1="320.0" x2="1195.0" y2="310.0" stroke="#000000" stroke-width="2" fill="none" />
  <line x1="1195.0" y1="530.0" x2="1195.0" y2="520.0" stroke="#000000" stroke-width="2" fill="none" />
  <line x1="645.0" y1="250.0" x2="585.0" y2="250.0" stroke="#000000" stroke-width="2" fill="none" />
  <line x1="955.0" y1="430.0" x2="1035.0" y2="430.0" stroke="#000000" stroke-width="2" fill="none" />
  <line x1="235.0" y1="430.0" x2="235.0" y2="480.0" stroke="#000000" stroke-width="2" fill="none" />
  <line x1="1035.0" y1="340.0" x2="1035.0" y2="310.0" stroke="#000000" stroke-width="2" fill="none" />
  <line x1="635.0" y1="370.0" x2="585.0" y2="370.0" stroke="#000000" stroke-width="2" fill="none" />
  <line x1="315.0" y1="220.0" x2="315.0" y2="100.0" stroke="#000000" stroke-width="2" fill="none" />
  <line x1="1115.0" y1="530.0" x2="1115.0" y2="460.0" stroke="#000000" stroke-width="2" fill="none" />
  <line x1="385.0" y1="370.0" x2="175.0" y2="370.0" stroke="#000000" stroke-width="2" fill="none" />
  <line x1="585.0" y1="310.0" x2="725.0" y2="310.0" stroke="#000000" stroke-width="2" fill="none" />
  <line x1="305.0" y1="560.0" x2="305.0" y2="580.0" stroke="#000000" stroke-width="2" fill="none" />
  <line x1="385.0" y1="430.0" x2="235.0" y2="430.0" stroke="#000000" stroke-width="2" fill="none" />
  <line x1="1035.0" y1="530.0" x2="1035.0" y2="520.0" stroke="#000000" stroke-width="2" fill="none" />
  <line x1="1035.0" y1="400.0" x2="1035.0" y2="460.0" stroke="#000000" stroke-width="2" fill="none" />
  <line x1="175.0" y1="320.0" x2="175.0" y2="250.0" stroke="#000000" stroke-width="2" fill="none" />
  <line x1="235.0" y1="580.0" x2="235.0" y2="540.0" stroke="#000000" stroke-width="2" fill="none" />
  <line x1="585.0" y1="430.0" x2="815.0" y2="430.0" stroke="#000000" stroke-width="2" fill="none" />
  <line x1="385.0" y1="190.0" x2="315.0" y2="190.0" stroke="#000000" stroke-width="2" fill="none" />
  <line x1="955.0" y1="580.0" x2="235.0" y2="580.0" stroke="#000000" stroke-width="2" fill="none" />
  <line x1="385.0" y1="490.0" x2="385.0" y2="580.0" stroke="#000000" stroke-width="2" fill="none" />
  <line x1="845.0" y1="310.0" x2="815.0" y2="310.0" stroke="#000000" stroke-width="2" fill="none" />
  <line x1="785.0" y1="190.0" x2="585.0" y2="190.0" stroke="#000000" stroke-width="2" fill="none" />
  <line x1="785.0" y1="480.0" x2="585.0" y2="480.0" stroke="#000000" stroke-width="2" fill="none" />
  <line x1="955.0" y1="580.0" x2="955.0" y2="430.0" stroke="#000000" stroke-width="2" fill="none" />
  <line x1="705.0" y1="490.0" x2="705.0" y2="480.0" stroke="#000000" stroke-width="2" fill="none" />
  <line x1="175.0" y1="190.0" x2="175.0" y2="100.0" stroke="#000000" stroke-width="2" fill="none" />
  <line x1="815.0" y1="220.0" x2="815.0" y2="450.0" stroke="#000000" stroke-width="2" fill="none" />
  <line x1="315.0" y1="280.0" x2="315.0" y2="320.0" stroke="#000000" stroke-width="2" fill="none" />
  <line x1="815.0" y1="100.0" x2="815.0" y2="160.0" stroke="#000000" stroke-width="2" fill="none" />
  <line x1="305.0" y1="440.0" x2="305.0" y2="430.0" stroke="#000000" stroke-width="2" fill="none" />
  <line x1="1115.0" y1="400.0" x2="1115.0" y2="310.0" stroke="#000000" stroke-width="2" fill="none" />
  <line x1="1035.0" y1="530.0" x2="1290.0" y2="530.0" stroke="#000000" stroke-width="2" fill="none" />
  <line x1="100.0" y1="320.0" x2="315.0" y2="320.0" stroke="#000000" stroke-width="2" fill="none" />
  <line x1="100.0" y1="100.0" x2="815.0" y2="100.0" stroke="#000000" stroke-width="2" fill="none" />
  <line x1="1115.0" y1="370.0" x2="1115.0" y2="340.0" stroke="#000000" stroke-width="2" fill="none" />
  <line x1="1280.0" y1="530.0" x2="1290.0" y2="530.0" stroke="#000000" stroke-width="2" fill="none" />
  <line x1="905.0" y1="310.0" x2="1290.0" y2="310.0" stroke="#000000" stroke-width="2" fill="none" />
  <line x1="100.0" y1="320.0" x2="110.0" y2="320.0" stroke="#000000" stroke-width="2" fill="none" />
  <line x1="100.0" y1="150.0" x2="100.0" y2="100.0" stroke="#000000" stroke-width="2" fill="none" />
  <line x1="100.0" y1="320.0" x2="100.0" y2="210.0" stroke="#000000" stroke-width="2" fill="none" />
  <line x1="100.0" y1="110.0" x2="100.0" y2="100.0" stroke="#000000" stroke-width="2" fill="none" />
  <line x1="100.0" y1="320.0" x2="100.0" y2="310.0" stroke="#000000" stroke-width="2" fill="none" />
  <line x1="1290.0" y1="430.0" x2="1290.0" y2="310.0" stroke="#000000" stroke-width="2" fill="none" />
  <line x1="1290.0" y1="530.0" x2="1290.0" y2="490.0" stroke="#000000" stroke-width="2" fill="none" />
  <line x1="1290.0" y1="320.0" x2="1290.0" y2="310.0" stroke="#000000" stroke-width="2" fill="none" />
  <line x1="1290.0" y1="530.0" x2="1290.0" y2="520.0" stroke="#000000" stroke-width="2" fill="none" />
  <line x1="175.0" y1="430.0" x2="175.0" y2="430.0" stroke="#000000" stroke-width="2" fill="none" />
  <line x1="955.0" y1="370.0" x2="955.0" y2="370.0" stroke="#000000" stroke-width="2" fill="none" />
  <line x1="305.0" y1="500.0" x2="305.0" y2="500.0" stroke="#000000" stroke-width="2" fill="none" />
  <line x1="725.0" y1="370.0" x2="725.0" y2="370.0" stroke="#000000" stroke-width="2" fill="none" />
  <line x1="485.0" y1="515.0" x2="485.0" y2="515.0" stroke="#000000" stroke-width="2" fill="none" />
  <line x1="815.0" y1="510.0" x2="815.0" y2="510.0" stroke="#000000" stroke-width="2" fill="none" />
  <line x1="705.0" y1="550.0" x2="705.0" y2="550.0" stroke="#000000" stroke-width="2" fill="none" />
  <circle cx="315.0" cy="190.0" r="5" stroke="#000000" stroke-width="0" fill="#000000" />
  <circle cx="305.0" cy="430.0" r="5" stroke="#000000" stroke-width="0" fill="#000000" />
  <circle cx="1035.0" cy="430.0" r="5" stroke="#000000" stroke-width="0" fill="#000000" />
  <circle cx="305.0" cy="580.0" r="5" stroke="#000000" stroke-width="0" fill="#000000" />
  <circle cx="385.0" cy="580.0" r="5" stroke="#000000" stroke-width="0" fill="#000000" />
  <circle cx="705.0" cy="480.0" r="5" stroke="#000000" stroke-width="0" fill="#000000" />
  <circle cx="815.0" cy="430.0" r="5" stroke="#000000" stroke-width="0" fill="#000000" />
  <circle cx="815.0" cy="310.0" r="5" stroke="#000000" stroke-width="0" fill="#000000" />
  <circle cx="1195.0" cy="530.0" r="5" stroke="#000000" stroke-width="0" fill="#000000" />
  <circle cx="1115.0" cy="530.0" r="5" stroke="#000000" stroke-width="0" fill="#000000" />
  <circle cx="175.0" cy="320.0" r="5" stroke="#000000" stroke-width="0" fill="#000000" />
  <circle cx="315.0" cy="100.0" r="5" stroke="#000000" stroke-width="0" fill="#000000" />
  <circle cx="175.0" cy="100.0" r="5" stroke="#000000" stroke-width="0" fill="#000000" />
  <circle cx="1195.0" cy="310.0" r="5" stroke="#000000" stroke-width="0" fill="#000000" />
  <circle cx="1035.0" cy="310.0" r="5" stroke="#000000" stroke-width="0" fill="#000000" />
  <circle cx="1115.0" cy="310.0" r="5" stroke="#000000" stroke-width="0" fill="#000000" />
  <circle cx="955.0" cy="430.0" r="5" stroke="#000000" stroke-width="0" fill="#000000" />
  <circle cx="645.0" cy="310.0" r="5" stroke="#000000" stroke-width="0" fill="#000000" />
  <circle cx="635.0" cy="430.0" r="5" stroke="#000000" stroke-width="0" fill="#000000" />
  <circle cx="1075.0" cy="530.0" r="5" stroke="#000000" stroke-width="0" fill="#000000" />
  <circle cx="215.0" cy="320.0" r="5" stroke="#000000" stroke-width="0" fill="#000000" />
  <circle cx="955.0" cy="310.0" r="5" stroke="#000000" stroke-width="0" fill="#000000" />
</svg>

