%TF.GenerationSoftware,KiCad,Pcbnew,(6.0.8-1)-1*%
%TF.CreationDate,2022-10-03T20:28:42-04:00*%
%TF.ProjectId,TPS40305_supply,54505334-3033-4303-955f-737570706c79,rev?*%
%TF.SameCoordinates,Original*%
%TF.FileFunction,Legend,Top*%
%TF.FilePolarity,Positive*%
%FSLAX46Y46*%
G04 Gerber Fmt 4.6, Leading zero omitted, Abs format (unit mm)*
G04 Created by KiCad (PCBNEW (6.0.8-1)-1) date 2022-10-03 20:28:42*
%MOMM*%
%LPD*%
G01*
G04 APERTURE LIST*
%ADD10C,0.150000*%
%ADD11C,0.120000*%
%ADD12C,0.306982*%
%ADD13C,0.280227*%
%ADD14C,0.329258*%
%ADD15C,0.127000*%
G04 APERTURE END LIST*
D10*
X86527619Y-55072857D02*
X86527619Y-55644285D01*
X85527619Y-55358571D02*
X86527619Y-55358571D01*
X85527619Y-55977619D02*
X86527619Y-55977619D01*
X86527619Y-56358571D01*
X86480000Y-56453809D01*
X86432380Y-56501428D01*
X86337142Y-56549047D01*
X86194285Y-56549047D01*
X86099047Y-56501428D01*
X86051428Y-56453809D01*
X86003809Y-56358571D01*
X86003809Y-55977619D01*
X85575238Y-56930000D02*
X85527619Y-57072857D01*
X85527619Y-57310952D01*
X85575238Y-57406190D01*
X85622857Y-57453809D01*
X85718095Y-57501428D01*
X85813333Y-57501428D01*
X85908571Y-57453809D01*
X85956190Y-57406190D01*
X86003809Y-57310952D01*
X86051428Y-57120476D01*
X86099047Y-57025238D01*
X86146666Y-56977619D01*
X86241904Y-56930000D01*
X86337142Y-56930000D01*
X86432380Y-56977619D01*
X86480000Y-57025238D01*
X86527619Y-57120476D01*
X86527619Y-57358571D01*
X86480000Y-57501428D01*
X86194285Y-58358571D02*
X85527619Y-58358571D01*
X86575238Y-58120476D02*
X85860952Y-57882380D01*
X85860952Y-58501428D01*
X86527619Y-59072857D02*
X86527619Y-59168095D01*
X86480000Y-59263333D01*
X86432380Y-59310952D01*
X86337142Y-59358571D01*
X86146666Y-59406190D01*
X85908571Y-59406190D01*
X85718095Y-59358571D01*
X85622857Y-59310952D01*
X85575238Y-59263333D01*
X85527619Y-59168095D01*
X85527619Y-59072857D01*
X85575238Y-58977619D01*
X85622857Y-58930000D01*
X85718095Y-58882380D01*
X85908571Y-58834761D01*
X86146666Y-58834761D01*
X86337142Y-58882380D01*
X86432380Y-58930000D01*
X86480000Y-58977619D01*
X86527619Y-59072857D01*
X86527619Y-59739523D02*
X86527619Y-60358571D01*
X86146666Y-60025238D01*
X86146666Y-60168095D01*
X86099047Y-60263333D01*
X86051428Y-60310952D01*
X85956190Y-60358571D01*
X85718095Y-60358571D01*
X85622857Y-60310952D01*
X85575238Y-60263333D01*
X85527619Y-60168095D01*
X85527619Y-59882380D01*
X85575238Y-59787142D01*
X85622857Y-59739523D01*
X86527619Y-60977619D02*
X86527619Y-61072857D01*
X86480000Y-61168095D01*
X86432380Y-61215714D01*
X86337142Y-61263333D01*
X86146666Y-61310952D01*
X85908571Y-61310952D01*
X85718095Y-61263333D01*
X85622857Y-61215714D01*
X85575238Y-61168095D01*
X85527619Y-61072857D01*
X85527619Y-60977619D01*
X85575238Y-60882380D01*
X85622857Y-60834761D01*
X85718095Y-60787142D01*
X85908571Y-60739523D01*
X86146666Y-60739523D01*
X86337142Y-60787142D01*
X86432380Y-60834761D01*
X86480000Y-60882380D01*
X86527619Y-60977619D01*
X86527619Y-62215714D02*
X86527619Y-61739523D01*
X86051428Y-61691904D01*
X86099047Y-61739523D01*
X86146666Y-61834761D01*
X86146666Y-62072857D01*
X86099047Y-62168095D01*
X86051428Y-62215714D01*
X85956190Y-62263333D01*
X85718095Y-62263333D01*
X85622857Y-62215714D01*
X85575238Y-62168095D01*
X85527619Y-62072857D01*
X85527619Y-61834761D01*
X85575238Y-61739523D01*
X85622857Y-61691904D01*
X85575238Y-63406190D02*
X85527619Y-63549047D01*
X85527619Y-63787142D01*
X85575238Y-63882380D01*
X85622857Y-63930000D01*
X85718095Y-63977619D01*
X85813333Y-63977619D01*
X85908571Y-63930000D01*
X85956190Y-63882380D01*
X86003809Y-63787142D01*
X86051428Y-63596666D01*
X86099047Y-63501428D01*
X86146666Y-63453809D01*
X86241904Y-63406190D01*
X86337142Y-63406190D01*
X86432380Y-63453809D01*
X86480000Y-63501428D01*
X86527619Y-63596666D01*
X86527619Y-63834761D01*
X86480000Y-63977619D01*
X86194285Y-64834761D02*
X85527619Y-64834761D01*
X86194285Y-64406190D02*
X85670476Y-64406190D01*
X85575238Y-64453809D01*
X85527619Y-64549047D01*
X85527619Y-64691904D01*
X85575238Y-64787142D01*
X85622857Y-64834761D01*
X86194285Y-65310952D02*
X85194285Y-65310952D01*
X86146666Y-65310952D02*
X86194285Y-65406190D01*
X86194285Y-65596666D01*
X86146666Y-65691904D01*
X86099047Y-65739523D01*
X86003809Y-65787142D01*
X85718095Y-65787142D01*
X85622857Y-65739523D01*
X85575238Y-65691904D01*
X85527619Y-65596666D01*
X85527619Y-65406190D01*
X85575238Y-65310952D01*
X86194285Y-66215714D02*
X85194285Y-66215714D01*
X86146666Y-66215714D02*
X86194285Y-66310952D01*
X86194285Y-66501428D01*
X86146666Y-66596666D01*
X86099047Y-66644285D01*
X86003809Y-66691904D01*
X85718095Y-66691904D01*
X85622857Y-66644285D01*
X85575238Y-66596666D01*
X85527619Y-66501428D01*
X85527619Y-66310952D01*
X85575238Y-66215714D01*
X85527619Y-67263333D02*
X85575238Y-67168095D01*
X85670476Y-67120476D01*
X86527619Y-67120476D01*
X86194285Y-67549047D02*
X85527619Y-67787142D01*
X86194285Y-68025238D02*
X85527619Y-67787142D01*
X85289523Y-67691904D01*
X85241904Y-67644285D01*
X85194285Y-67549047D01*
X85527619Y-69739523D02*
X86003809Y-69406190D01*
X85527619Y-69168095D02*
X86527619Y-69168095D01*
X86527619Y-69549047D01*
X86480000Y-69644285D01*
X86432380Y-69691904D01*
X86337142Y-69739523D01*
X86194285Y-69739523D01*
X86099047Y-69691904D01*
X86051428Y-69644285D01*
X86003809Y-69549047D01*
X86003809Y-69168095D01*
X85527619Y-70691904D02*
X85527619Y-70120476D01*
X85527619Y-70406190D02*
X86527619Y-70406190D01*
X86384761Y-70310952D01*
X86289523Y-70215714D01*
X86241904Y-70120476D01*
%TO.C,U1*%
X98626495Y-45431289D02*
X98626495Y-46240813D01*
X98674114Y-46336051D01*
X98721733Y-46383670D01*
X98816971Y-46431289D01*
X99007447Y-46431289D01*
X99102685Y-46383670D01*
X99150304Y-46336051D01*
X99197923Y-46240813D01*
X99197923Y-45431289D01*
X100197923Y-46431289D02*
X99626495Y-46431289D01*
X99912209Y-46431289D02*
X99912209Y-45431289D01*
X99816971Y-45574147D01*
X99721733Y-45669385D01*
X99626495Y-45717004D01*
%TO.C,Q2*%
X100874761Y-55517619D02*
X100779523Y-55470000D01*
X100684285Y-55374761D01*
X100541428Y-55231904D01*
X100446190Y-55184285D01*
X100350952Y-55184285D01*
X100398571Y-55422380D02*
X100303333Y-55374761D01*
X100208095Y-55279523D01*
X100160476Y-55089047D01*
X100160476Y-54755714D01*
X100208095Y-54565238D01*
X100303333Y-54470000D01*
X100398571Y-54422380D01*
X100589047Y-54422380D01*
X100684285Y-54470000D01*
X100779523Y-54565238D01*
X100827142Y-54755714D01*
X100827142Y-55089047D01*
X100779523Y-55279523D01*
X100684285Y-55374761D01*
X100589047Y-55422380D01*
X100398571Y-55422380D01*
X101208095Y-54517619D02*
X101255714Y-54470000D01*
X101350952Y-54422380D01*
X101589047Y-54422380D01*
X101684285Y-54470000D01*
X101731904Y-54517619D01*
X101779523Y-54612857D01*
X101779523Y-54708095D01*
X101731904Y-54850952D01*
X101160476Y-55422380D01*
X101779523Y-55422380D01*
%TO.C,C1*%
X92117533Y-65054142D02*
X92069914Y-65101761D01*
X91927057Y-65149380D01*
X91831819Y-65149380D01*
X91688961Y-65101761D01*
X91593723Y-65006523D01*
X91546104Y-64911285D01*
X91498485Y-64720809D01*
X91498485Y-64577952D01*
X91546104Y-64387476D01*
X91593723Y-64292238D01*
X91688961Y-64197000D01*
X91831819Y-64149380D01*
X91927057Y-64149380D01*
X92069914Y-64197000D01*
X92117533Y-64244619D01*
X93069914Y-65149380D02*
X92498485Y-65149380D01*
X92784200Y-65149380D02*
X92784200Y-64149380D01*
X92688961Y-64292238D01*
X92593723Y-64387476D01*
X92498485Y-64435095D01*
%TO.C,C6*%
X101721333Y-44623542D02*
X101673714Y-44671161D01*
X101530857Y-44718780D01*
X101435619Y-44718780D01*
X101292761Y-44671161D01*
X101197523Y-44575923D01*
X101149904Y-44480685D01*
X101102285Y-44290209D01*
X101102285Y-44147352D01*
X101149904Y-43956876D01*
X101197523Y-43861638D01*
X101292761Y-43766400D01*
X101435619Y-43718780D01*
X101530857Y-43718780D01*
X101673714Y-43766400D01*
X101721333Y-43814019D01*
X102578476Y-43718780D02*
X102388000Y-43718780D01*
X102292761Y-43766400D01*
X102245142Y-43814019D01*
X102149904Y-43956876D01*
X102102285Y-44147352D01*
X102102285Y-44528304D01*
X102149904Y-44623542D01*
X102197523Y-44671161D01*
X102292761Y-44718780D01*
X102483238Y-44718780D01*
X102578476Y-44671161D01*
X102626095Y-44623542D01*
X102673714Y-44528304D01*
X102673714Y-44290209D01*
X102626095Y-44194971D01*
X102578476Y-44147352D01*
X102483238Y-44099733D01*
X102292761Y-44099733D01*
X102197523Y-44147352D01*
X102149904Y-44194971D01*
X102102285Y-44290209D01*
%TO.C,R4*%
X89415133Y-44930180D02*
X89081800Y-44453990D01*
X88843704Y-44930180D02*
X88843704Y-43930180D01*
X89224657Y-43930180D01*
X89319895Y-43977800D01*
X89367514Y-44025419D01*
X89415133Y-44120657D01*
X89415133Y-44263514D01*
X89367514Y-44358752D01*
X89319895Y-44406371D01*
X89224657Y-44453990D01*
X88843704Y-44453990D01*
X90272276Y-44263514D02*
X90272276Y-44930180D01*
X90034180Y-43882561D02*
X89796085Y-44596847D01*
X90415133Y-44596847D01*
%TO.C,C9*%
X107997142Y-49296666D02*
X108044761Y-49344285D01*
X108092380Y-49487142D01*
X108092380Y-49582380D01*
X108044761Y-49725238D01*
X107949523Y-49820476D01*
X107854285Y-49868095D01*
X107663809Y-49915714D01*
X107520952Y-49915714D01*
X107330476Y-49868095D01*
X107235238Y-49820476D01*
X107140000Y-49725238D01*
X107092380Y-49582380D01*
X107092380Y-49487142D01*
X107140000Y-49344285D01*
X107187619Y-49296666D01*
X108092380Y-48820476D02*
X108092380Y-48630000D01*
X108044761Y-48534761D01*
X107997142Y-48487142D01*
X107854285Y-48391904D01*
X107663809Y-48344285D01*
X107282857Y-48344285D01*
X107187619Y-48391904D01*
X107140000Y-48439523D01*
X107092380Y-48534761D01*
X107092380Y-48725238D01*
X107140000Y-48820476D01*
X107187619Y-48868095D01*
X107282857Y-48915714D01*
X107520952Y-48915714D01*
X107616190Y-48868095D01*
X107663809Y-48820476D01*
X107711428Y-48725238D01*
X107711428Y-48534761D01*
X107663809Y-48439523D01*
X107616190Y-48391904D01*
X107520952Y-48344285D01*
%TO.C,Q1*%
X93417132Y-55466348D02*
X93321894Y-55418729D01*
X93226656Y-55323490D01*
X93083799Y-55180633D01*
X92988561Y-55133014D01*
X92893323Y-55133014D01*
X92940942Y-55371109D02*
X92845704Y-55323490D01*
X92750466Y-55228252D01*
X92702847Y-55037776D01*
X92702847Y-54704443D01*
X92750466Y-54513967D01*
X92845704Y-54418729D01*
X92940942Y-54371109D01*
X93131418Y-54371109D01*
X93226656Y-54418729D01*
X93321894Y-54513967D01*
X93369513Y-54704443D01*
X93369513Y-55037776D01*
X93321894Y-55228252D01*
X93226656Y-55323490D01*
X93131418Y-55371109D01*
X92940942Y-55371109D01*
X94321894Y-55371109D02*
X93750466Y-55371109D01*
X94036180Y-55371109D02*
X94036180Y-54371109D01*
X93940942Y-54513967D01*
X93845704Y-54609205D01*
X93750466Y-54656824D01*
%TO.C,C7*%
X101718333Y-42488342D02*
X101670714Y-42535961D01*
X101527857Y-42583580D01*
X101432619Y-42583580D01*
X101289761Y-42535961D01*
X101194523Y-42440723D01*
X101146904Y-42345485D01*
X101099285Y-42155009D01*
X101099285Y-42012152D01*
X101146904Y-41821676D01*
X101194523Y-41726438D01*
X101289761Y-41631200D01*
X101432619Y-41583580D01*
X101527857Y-41583580D01*
X101670714Y-41631200D01*
X101718333Y-41678819D01*
X102051666Y-41583580D02*
X102718333Y-41583580D01*
X102289761Y-42583580D01*
%TO.C,C4*%
X103757142Y-50146666D02*
X103804761Y-50194285D01*
X103852380Y-50337142D01*
X103852380Y-50432380D01*
X103804761Y-50575238D01*
X103709523Y-50670476D01*
X103614285Y-50718095D01*
X103423809Y-50765714D01*
X103280952Y-50765714D01*
X103090476Y-50718095D01*
X102995238Y-50670476D01*
X102900000Y-50575238D01*
X102852380Y-50432380D01*
X102852380Y-50337142D01*
X102900000Y-50194285D01*
X102947619Y-50146666D01*
X103185714Y-49289523D02*
X103852380Y-49289523D01*
X102804761Y-49527619D02*
X103519047Y-49765714D01*
X103519047Y-49146666D01*
%TO.C,R6*%
X89415133Y-42110180D02*
X89081800Y-41633990D01*
X88843704Y-42110180D02*
X88843704Y-41110180D01*
X89224657Y-41110180D01*
X89319895Y-41157800D01*
X89367514Y-41205419D01*
X89415133Y-41300657D01*
X89415133Y-41443514D01*
X89367514Y-41538752D01*
X89319895Y-41586371D01*
X89224657Y-41633990D01*
X88843704Y-41633990D01*
X90272276Y-41110180D02*
X90081800Y-41110180D01*
X89986561Y-41157800D01*
X89938942Y-41205419D01*
X89843704Y-41348276D01*
X89796085Y-41538752D01*
X89796085Y-41919704D01*
X89843704Y-42014942D01*
X89891323Y-42062561D01*
X89986561Y-42110180D01*
X90177038Y-42110180D01*
X90272276Y-42062561D01*
X90319895Y-42014942D01*
X90367514Y-41919704D01*
X90367514Y-41681609D01*
X90319895Y-41586371D01*
X90272276Y-41538752D01*
X90177038Y-41491133D01*
X89986561Y-41491133D01*
X89891323Y-41538752D01*
X89843704Y-41586371D01*
X89796085Y-41681609D01*
%TO.C,R7*%
X89983333Y-53142380D02*
X89650000Y-52666190D01*
X89411904Y-53142380D02*
X89411904Y-52142380D01*
X89792857Y-52142380D01*
X89888095Y-52190000D01*
X89935714Y-52237619D01*
X89983333Y-52332857D01*
X89983333Y-52475714D01*
X89935714Y-52570952D01*
X89888095Y-52618571D01*
X89792857Y-52666190D01*
X89411904Y-52666190D01*
X90316666Y-52142380D02*
X90983333Y-52142380D01*
X90554761Y-53142380D01*
%TO.C,L1*%
X111587619Y-57663333D02*
X111587619Y-57187142D01*
X112587619Y-57187142D01*
X111587619Y-58520476D02*
X111587619Y-57949047D01*
X111587619Y-58234761D02*
X112587619Y-58234761D01*
X112444761Y-58139523D01*
X112349523Y-58044285D01*
X112301904Y-57949047D01*
%TO.C,C3*%
X92128333Y-71976542D02*
X92080714Y-72024161D01*
X91937857Y-72071780D01*
X91842619Y-72071780D01*
X91699761Y-72024161D01*
X91604523Y-71928923D01*
X91556904Y-71833685D01*
X91509285Y-71643209D01*
X91509285Y-71500352D01*
X91556904Y-71309876D01*
X91604523Y-71214638D01*
X91699761Y-71119400D01*
X91842619Y-71071780D01*
X91937857Y-71071780D01*
X92080714Y-71119400D01*
X92128333Y-71167019D01*
X92461666Y-71071780D02*
X93080714Y-71071780D01*
X92747380Y-71452733D01*
X92890238Y-71452733D01*
X92985476Y-71500352D01*
X93033095Y-71547971D01*
X93080714Y-71643209D01*
X93080714Y-71881304D01*
X93033095Y-71976542D01*
X92985476Y-72024161D01*
X92890238Y-72071780D01*
X92604523Y-72071780D01*
X92509285Y-72024161D01*
X92461666Y-71976542D01*
%TO.C,R3*%
X100602933Y-51324380D02*
X100269600Y-50848190D01*
X100031504Y-51324380D02*
X100031504Y-50324380D01*
X100412457Y-50324380D01*
X100507695Y-50372000D01*
X100555314Y-50419619D01*
X100602933Y-50514857D01*
X100602933Y-50657714D01*
X100555314Y-50752952D01*
X100507695Y-50800571D01*
X100412457Y-50848190D01*
X100031504Y-50848190D01*
X100936266Y-50324380D02*
X101555314Y-50324380D01*
X101221980Y-50705333D01*
X101364838Y-50705333D01*
X101460076Y-50752952D01*
X101507695Y-50800571D01*
X101555314Y-50895809D01*
X101555314Y-51133904D01*
X101507695Y-51229142D01*
X101460076Y-51276761D01*
X101364838Y-51324380D01*
X101079123Y-51324380D01*
X100983885Y-51276761D01*
X100936266Y-51229142D01*
%TO.C,C8*%
X98112533Y-51243742D02*
X98064914Y-51291361D01*
X97922057Y-51338980D01*
X97826819Y-51338980D01*
X97683961Y-51291361D01*
X97588723Y-51196123D01*
X97541104Y-51100885D01*
X97493485Y-50910409D01*
X97493485Y-50767552D01*
X97541104Y-50577076D01*
X97588723Y-50481838D01*
X97683961Y-50386600D01*
X97826819Y-50338980D01*
X97922057Y-50338980D01*
X98064914Y-50386600D01*
X98112533Y-50434219D01*
X98683961Y-50767552D02*
X98588723Y-50719933D01*
X98541104Y-50672314D01*
X98493485Y-50577076D01*
X98493485Y-50529457D01*
X98541104Y-50434219D01*
X98588723Y-50386600D01*
X98683961Y-50338980D01*
X98874438Y-50338980D01*
X98969676Y-50386600D01*
X99017295Y-50434219D01*
X99064914Y-50529457D01*
X99064914Y-50577076D01*
X99017295Y-50672314D01*
X98969676Y-50719933D01*
X98874438Y-50767552D01*
X98683961Y-50767552D01*
X98588723Y-50815171D01*
X98541104Y-50862790D01*
X98493485Y-50958028D01*
X98493485Y-51148504D01*
X98541104Y-51243742D01*
X98588723Y-51291361D01*
X98683961Y-51338980D01*
X98874438Y-51338980D01*
X98969676Y-51291361D01*
X99017295Y-51243742D01*
X99064914Y-51148504D01*
X99064914Y-50958028D01*
X99017295Y-50862790D01*
X98969676Y-50815171D01*
X98874438Y-50767552D01*
%TO.C,C10*%
X93367142Y-45927142D02*
X93319523Y-45974761D01*
X93176666Y-46022380D01*
X93081428Y-46022380D01*
X92938571Y-45974761D01*
X92843333Y-45879523D01*
X92795714Y-45784285D01*
X92748095Y-45593809D01*
X92748095Y-45450952D01*
X92795714Y-45260476D01*
X92843333Y-45165238D01*
X92938571Y-45070000D01*
X93081428Y-45022380D01*
X93176666Y-45022380D01*
X93319523Y-45070000D01*
X93367142Y-45117619D01*
X94319523Y-46022380D02*
X93748095Y-46022380D01*
X94033809Y-46022380D02*
X94033809Y-45022380D01*
X93938571Y-45165238D01*
X93843333Y-45260476D01*
X93748095Y-45308095D01*
X94938571Y-45022380D02*
X95033809Y-45022380D01*
X95129047Y-45070000D01*
X95176666Y-45117619D01*
X95224285Y-45212857D01*
X95271904Y-45403333D01*
X95271904Y-45641428D01*
X95224285Y-45831904D01*
X95176666Y-45927142D01*
X95129047Y-45974761D01*
X95033809Y-46022380D01*
X94938571Y-46022380D01*
X94843333Y-45974761D01*
X94795714Y-45927142D01*
X94748095Y-45831904D01*
X94700476Y-45641428D01*
X94700476Y-45403333D01*
X94748095Y-45212857D01*
X94795714Y-45117619D01*
X94843333Y-45070000D01*
X94938571Y-45022380D01*
%TO.C,R2*%
X106573333Y-44452380D02*
X106240000Y-43976190D01*
X106001904Y-44452380D02*
X106001904Y-43452380D01*
X106382857Y-43452380D01*
X106478095Y-43500000D01*
X106525714Y-43547619D01*
X106573333Y-43642857D01*
X106573333Y-43785714D01*
X106525714Y-43880952D01*
X106478095Y-43928571D01*
X106382857Y-43976190D01*
X106001904Y-43976190D01*
X106954285Y-43547619D02*
X107001904Y-43500000D01*
X107097142Y-43452380D01*
X107335238Y-43452380D01*
X107430476Y-43500000D01*
X107478095Y-43547619D01*
X107525714Y-43642857D01*
X107525714Y-43738095D01*
X107478095Y-43880952D01*
X106906666Y-44452380D01*
X107525714Y-44452380D01*
%TO.C,C11*%
X107493742Y-68987142D02*
X107446123Y-69034761D01*
X107303266Y-69082380D01*
X107208028Y-69082380D01*
X107065171Y-69034761D01*
X106969933Y-68939523D01*
X106922314Y-68844285D01*
X106874695Y-68653809D01*
X106874695Y-68510952D01*
X106922314Y-68320476D01*
X106969933Y-68225238D01*
X107065171Y-68130000D01*
X107208028Y-68082380D01*
X107303266Y-68082380D01*
X107446123Y-68130000D01*
X107493742Y-68177619D01*
X108446123Y-69082380D02*
X107874695Y-69082380D01*
X108160409Y-69082380D02*
X108160409Y-68082380D01*
X108065171Y-68225238D01*
X107969933Y-68320476D01*
X107874695Y-68368095D01*
X109398504Y-69082380D02*
X108827076Y-69082380D01*
X109112790Y-69082380D02*
X109112790Y-68082380D01*
X109017552Y-68225238D01*
X108922314Y-68320476D01*
X108827076Y-68368095D01*
X106211952Y-66367371D02*
X105450047Y-66367371D01*
X105831000Y-65986419D02*
X105831000Y-66748323D01*
%TO.C,R1*%
X96932380Y-45136666D02*
X96456190Y-45470000D01*
X96932380Y-45708095D02*
X95932380Y-45708095D01*
X95932380Y-45327142D01*
X95980000Y-45231904D01*
X96027619Y-45184285D01*
X96122857Y-45136666D01*
X96265714Y-45136666D01*
X96360952Y-45184285D01*
X96408571Y-45231904D01*
X96456190Y-45327142D01*
X96456190Y-45708095D01*
X96932380Y-44184285D02*
X96932380Y-44755714D01*
X96932380Y-44470000D02*
X95932380Y-44470000D01*
X96075238Y-44565238D01*
X96170476Y-44660476D01*
X96218095Y-44755714D01*
%TO.C,C5*%
X108523333Y-46777142D02*
X108475714Y-46824761D01*
X108332857Y-46872380D01*
X108237619Y-46872380D01*
X108094761Y-46824761D01*
X107999523Y-46729523D01*
X107951904Y-46634285D01*
X107904285Y-46443809D01*
X107904285Y-46300952D01*
X107951904Y-46110476D01*
X107999523Y-46015238D01*
X108094761Y-45920000D01*
X108237619Y-45872380D01*
X108332857Y-45872380D01*
X108475714Y-45920000D01*
X108523333Y-45967619D01*
X109428095Y-45872380D02*
X108951904Y-45872380D01*
X108904285Y-46348571D01*
X108951904Y-46300952D01*
X109047142Y-46253333D01*
X109285238Y-46253333D01*
X109380476Y-46300952D01*
X109428095Y-46348571D01*
X109475714Y-46443809D01*
X109475714Y-46681904D01*
X109428095Y-46777142D01*
X109380476Y-46824761D01*
X109285238Y-46872380D01*
X109047142Y-46872380D01*
X108951904Y-46824761D01*
X108904285Y-46777142D01*
%TO.C,R5*%
X89415133Y-43530180D02*
X89081800Y-43053990D01*
X88843704Y-43530180D02*
X88843704Y-42530180D01*
X89224657Y-42530180D01*
X89319895Y-42577800D01*
X89367514Y-42625419D01*
X89415133Y-42720657D01*
X89415133Y-42863514D01*
X89367514Y-42958752D01*
X89319895Y-43006371D01*
X89224657Y-43053990D01*
X88843704Y-43053990D01*
X90319895Y-42530180D02*
X89843704Y-42530180D01*
X89796085Y-43006371D01*
X89843704Y-42958752D01*
X89938942Y-42911133D01*
X90177038Y-42911133D01*
X90272276Y-42958752D01*
X90319895Y-43006371D01*
X90367514Y-43101609D01*
X90367514Y-43339704D01*
X90319895Y-43434942D01*
X90272276Y-43482561D01*
X90177038Y-43530180D01*
X89938942Y-43530180D01*
X89843704Y-43482561D01*
X89796085Y-43434942D01*
%TO.C,C2*%
X92102933Y-68641942D02*
X92055314Y-68689561D01*
X91912457Y-68737180D01*
X91817219Y-68737180D01*
X91674361Y-68689561D01*
X91579123Y-68594323D01*
X91531504Y-68499085D01*
X91483885Y-68308609D01*
X91483885Y-68165752D01*
X91531504Y-67975276D01*
X91579123Y-67880038D01*
X91674361Y-67784800D01*
X91817219Y-67737180D01*
X91912457Y-67737180D01*
X92055314Y-67784800D01*
X92102933Y-67832419D01*
X92483885Y-67832419D02*
X92531504Y-67784800D01*
X92626742Y-67737180D01*
X92864838Y-67737180D01*
X92960076Y-67784800D01*
X93007695Y-67832419D01*
X93055314Y-67927657D01*
X93055314Y-68022895D01*
X93007695Y-68165752D01*
X92436266Y-68737180D01*
X93055314Y-68737180D01*
%TO.C,C12*%
X107342142Y-71983342D02*
X107294523Y-72030961D01*
X107151666Y-72078580D01*
X107056428Y-72078580D01*
X106913571Y-72030961D01*
X106818333Y-71935723D01*
X106770714Y-71840485D01*
X106723095Y-71650009D01*
X106723095Y-71507152D01*
X106770714Y-71316676D01*
X106818333Y-71221438D01*
X106913571Y-71126200D01*
X107056428Y-71078580D01*
X107151666Y-71078580D01*
X107294523Y-71126200D01*
X107342142Y-71173819D01*
X108294523Y-72078580D02*
X107723095Y-72078580D01*
X108008809Y-72078580D02*
X108008809Y-71078580D01*
X107913571Y-71221438D01*
X107818333Y-71316676D01*
X107723095Y-71364295D01*
X108675476Y-71173819D02*
X108723095Y-71126200D01*
X108818333Y-71078580D01*
X109056428Y-71078580D01*
X109151666Y-71126200D01*
X109199285Y-71173819D01*
X109246904Y-71269057D01*
X109246904Y-71364295D01*
X109199285Y-71507152D01*
X108627857Y-72078580D01*
X109246904Y-72078580D01*
D11*
%TO.C,U1*%
X101311091Y-46840800D02*
X98311091Y-46840800D01*
X98311091Y-46840800D02*
X98311091Y-49840800D01*
X98311091Y-49840800D02*
X101311091Y-49840800D01*
X101311091Y-49840800D02*
X101311091Y-46840800D01*
D12*
X101284582Y-46190800D02*
G75*
G03*
X101284582Y-46190800I-153491J0D01*
G01*
D11*
%TO.C,Q2*%
X101841000Y-55978800D02*
X96741000Y-55978800D01*
X96741000Y-55978800D02*
X96741000Y-62078800D01*
X96741000Y-62078800D02*
X101841000Y-62078800D01*
X101841000Y-62078800D02*
X101841000Y-55978800D01*
D13*
X96501113Y-62398800D02*
G75*
G03*
X96501113Y-62398800I-140113J0D01*
G01*
%TO.C,kibuzzard-633B5210*%
G36*
X85643721Y-76085879D02*
G01*
X98916279Y-76085879D01*
X98916279Y-79374121D01*
X85643721Y-79374121D01*
X85643721Y-78039562D01*
X86966637Y-78039562D01*
X87465112Y-78039562D01*
X87465112Y-78592013D01*
X87801662Y-78592013D01*
X87801662Y-78039562D01*
X88300137Y-78039562D01*
X88300137Y-77718888D01*
X87801662Y-77718888D01*
X87801662Y-77166437D01*
X87465112Y-77166437D01*
X87465112Y-77718888D01*
X86966637Y-77718888D01*
X86966637Y-78039562D01*
X85643721Y-78039562D01*
X85643721Y-76747338D01*
X90055912Y-76747338D01*
X90092425Y-76925138D01*
X90144812Y-77147387D01*
X90186793Y-77313722D01*
X90232301Y-77486760D01*
X90281337Y-77666500D01*
X90333196Y-77849768D01*
X90387171Y-78033389D01*
X90443262Y-78217363D01*
X90526606Y-78479300D01*
X90605187Y-78712663D01*
X91008412Y-78712663D01*
X91773587Y-78712663D01*
X93021362Y-78712663D01*
X93335687Y-78712663D01*
X93688112Y-78712663D01*
X93688112Y-77407737D01*
X93806117Y-77625578D01*
X93918829Y-77843065D01*
X94026250Y-78060200D01*
X94128379Y-78277335D01*
X94225217Y-78494822D01*
X94316762Y-78712663D01*
X94631088Y-78712663D01*
X94631088Y-78090363D01*
X96723413Y-78090363D01*
X97593362Y-78090363D01*
X97593362Y-77706188D01*
X96723413Y-77706188D01*
X96723413Y-78090363D01*
X94631088Y-78090363D01*
X94631088Y-76747338D01*
X94278662Y-76747338D01*
X94278662Y-77957013D01*
X94222703Y-77833188D01*
X94156425Y-77690312D01*
X94081812Y-77535531D01*
X94000850Y-77375987D01*
X93915522Y-77213666D01*
X93827812Y-77050550D01*
X93738912Y-76892991D01*
X93650012Y-76747338D01*
X93335687Y-76747338D01*
X93335687Y-78712663D01*
X93021362Y-78712663D01*
X93021362Y-78388813D01*
X92595912Y-78388813D01*
X92595912Y-77071188D01*
X93021362Y-77071188D01*
X93021362Y-76747338D01*
X91773587Y-76747338D01*
X91773587Y-77071188D01*
X92202212Y-77071188D01*
X92202212Y-78388813D01*
X91773587Y-78388813D01*
X91773587Y-78712663D01*
X91008412Y-78712663D01*
X91069090Y-78543506D01*
X91128357Y-78370468D01*
X91186212Y-78193550D01*
X91241775Y-78015750D01*
X91294162Y-77840067D01*
X91343375Y-77666500D01*
X91410844Y-77413691D01*
X91470375Y-77172787D01*
X91521572Y-76948950D01*
X91564038Y-76747338D01*
X91154462Y-76747338D01*
X91125887Y-76912437D01*
X91090962Y-77102937D01*
X91051275Y-77308916D01*
X91008412Y-77520450D01*
X90962375Y-77733175D01*
X90913162Y-77942725D01*
X90862362Y-78139178D01*
X90811562Y-78312613D01*
X90760366Y-78136797D01*
X90708375Y-77939550D01*
X90657575Y-77730000D01*
X90609950Y-77517275D01*
X90565897Y-77306138D01*
X90525812Y-77101350D01*
X90492475Y-76912041D01*
X90468662Y-76747338D01*
X90055912Y-76747338D01*
X85643721Y-76747338D01*
X85643721Y-76085879D01*
G37*
%TO.C,kibuzzard-633B51DB*%
G36*
X101191429Y-76003017D02*
G01*
X114728571Y-76003017D01*
X114728571Y-79376983D01*
X101191429Y-79376983D01*
X101191429Y-78051950D01*
X101852887Y-78051950D01*
X102722837Y-78051950D01*
X102722837Y-77667775D01*
X101852887Y-77667775D01*
X101852887Y-78051950D01*
X101191429Y-78051950D01*
X101191429Y-76708925D01*
X104710387Y-76708925D01*
X104746900Y-76886725D01*
X104799287Y-77108975D01*
X104841268Y-77275310D01*
X104886776Y-77448347D01*
X104935812Y-77628087D01*
X104987671Y-77811356D01*
X105041646Y-77994976D01*
X105097737Y-78178950D01*
X105181081Y-78440887D01*
X105259662Y-78674250D01*
X105662887Y-78674250D01*
X105723565Y-78505093D01*
X105782832Y-78332056D01*
X105840687Y-78155137D01*
X105896250Y-77977338D01*
X105948637Y-77801654D01*
X105980295Y-77690000D01*
X106342337Y-77690000D01*
X106353748Y-77928423D01*
X106387978Y-78135691D01*
X106445029Y-78311804D01*
X106524900Y-78456762D01*
X106664776Y-78600519D01*
X106840989Y-78686774D01*
X107053537Y-78715525D01*
X107260971Y-78686774D01*
X107434537Y-78600519D01*
X107574237Y-78456762D01*
X107654803Y-78311804D01*
X107712350Y-78135691D01*
X107741110Y-77963050D01*
X107967937Y-77963050D01*
X107975875Y-78126562D01*
X107999687Y-78274200D01*
X108042550Y-78403581D01*
X108107637Y-78512325D01*
X108312425Y-78663137D01*
X108456491Y-78702428D01*
X108631512Y-78715525D01*
X108809312Y-78702428D01*
X108955362Y-78663137D01*
X109072837Y-78599241D01*
X109164912Y-78512325D01*
X109232381Y-78403581D01*
X109276037Y-78274200D01*
X109299850Y-78126562D01*
X109307787Y-77963050D01*
X109307787Y-77032775D01*
X109510987Y-77032775D01*
X110028512Y-77032775D01*
X110028512Y-78674250D01*
X110422212Y-78674250D01*
X110422212Y-78001150D01*
X112733612Y-78001150D01*
X113232087Y-78001150D01*
X113232087Y-78553600D01*
X113568638Y-78553600D01*
X113568638Y-78001150D01*
X114067113Y-78001150D01*
X114067113Y-77680475D01*
X113568638Y-77680475D01*
X113568638Y-77128025D01*
X113232087Y-77128025D01*
X113232087Y-77680475D01*
X112733612Y-77680475D01*
X112733612Y-78001150D01*
X110422212Y-78001150D01*
X110422212Y-77032775D01*
X110939738Y-77032775D01*
X110939738Y-76708925D01*
X109510987Y-76708925D01*
X109510987Y-77032775D01*
X109307787Y-77032775D01*
X109307787Y-76708925D01*
X108917262Y-76708925D01*
X108917262Y-77934475D01*
X108904562Y-78142437D01*
X108860112Y-78278962D01*
X108774387Y-78353575D01*
X108637862Y-78375800D01*
X108501337Y-78353575D01*
X108417200Y-78280550D01*
X108374337Y-78145612D01*
X108361637Y-77937650D01*
X108361637Y-76708925D01*
X107967937Y-76708925D01*
X107967937Y-77963050D01*
X107741110Y-77963050D01*
X107746878Y-77928423D01*
X107758387Y-77690000D01*
X107747077Y-77451577D01*
X107713144Y-77244309D01*
X107656589Y-77068196D01*
X107577412Y-76923237D01*
X107438418Y-76779481D01*
X107262735Y-76693226D01*
X107050362Y-76664475D01*
X106844340Y-76693226D01*
X106670774Y-76779481D01*
X106529662Y-76923237D01*
X106447708Y-77068196D01*
X106389169Y-77244309D01*
X106354045Y-77451577D01*
X106342337Y-77690000D01*
X105980295Y-77690000D01*
X105997850Y-77628087D01*
X106065319Y-77375278D01*
X106124850Y-77134375D01*
X106176047Y-76910537D01*
X106218512Y-76708925D01*
X105808937Y-76708925D01*
X105780362Y-76874025D01*
X105745437Y-77064525D01*
X105705750Y-77270503D01*
X105662887Y-77482037D01*
X105616850Y-77694762D01*
X105567637Y-77904312D01*
X105516837Y-78100766D01*
X105466037Y-78274200D01*
X105414841Y-78098384D01*
X105362850Y-77901137D01*
X105312050Y-77691587D01*
X105264425Y-77478862D01*
X105220372Y-77267725D01*
X105180287Y-77062937D01*
X105146950Y-76873628D01*
X105123137Y-76708925D01*
X104710387Y-76708925D01*
X101191429Y-76708925D01*
X101191429Y-76003017D01*
G37*
G36*
X107212287Y-77058175D02*
G01*
X107305950Y-77204225D01*
X107350400Y-77421712D01*
X107358734Y-77551491D01*
X107361512Y-77690000D01*
X107358734Y-77828112D01*
X107350400Y-77956700D01*
X107305950Y-78174187D01*
X107210700Y-78321825D01*
X107050362Y-78375800D01*
X106888437Y-78321825D01*
X106794775Y-78175775D01*
X106750325Y-77958287D01*
X106741991Y-77828509D01*
X106739212Y-77690000D01*
X106741991Y-77551887D01*
X106750325Y-77423300D01*
X106794775Y-77205812D01*
X106888437Y-77058175D01*
X107050362Y-77004200D01*
X107212287Y-77058175D01*
G37*
D11*
%TO.C,C1*%
X95179748Y-66248800D02*
X96602252Y-66248800D01*
X95179748Y-63528800D02*
X96602252Y-63528800D01*
%TO.C,C6*%
X99253652Y-43451600D02*
X98731148Y-43451600D01*
X99253652Y-44921600D02*
X98731148Y-44921600D01*
%TO.C,J1*%
X85513200Y-87820000D02*
X85513200Y-79820000D01*
X85513200Y-79820000D02*
X92013200Y-79820000D01*
X92013200Y-79820000D02*
X92013200Y-87820000D01*
X92013200Y-87820000D02*
X85513200Y-87820000D01*
%TO.C,R4*%
X91445359Y-44090400D02*
X91752641Y-44090400D01*
X91445359Y-44850400D02*
X91752641Y-44850400D01*
%TO.C,C9*%
X105140000Y-49477652D02*
X105140000Y-48955148D01*
X106610000Y-49477652D02*
X106610000Y-48955148D01*
%TO.C,Q1*%
X96115971Y-59296729D02*
X92815971Y-59296729D01*
X92815971Y-59296729D02*
X92815971Y-55996729D01*
X92815971Y-55996729D02*
X96115971Y-55996729D01*
X96115971Y-55996729D02*
X96115971Y-59296729D01*
D14*
X96050600Y-55506729D02*
G75*
G03*
X96050600Y-55506729I-164629J0D01*
G01*
D11*
%TO.C,J3*%
X114670000Y-79820000D02*
X114670000Y-87820000D01*
X108170000Y-79820000D02*
X114670000Y-79820000D01*
X114670000Y-87820000D02*
X108170000Y-87820000D01*
X108170000Y-87820000D02*
X108170000Y-79820000D01*
%TO.C,C7*%
X99276052Y-41189400D02*
X98753548Y-41189400D01*
X99276052Y-42659400D02*
X98753548Y-42659400D01*
%TO.C,C4*%
X104127400Y-46818948D02*
X104127400Y-47341452D01*
X102657400Y-46818948D02*
X102657400Y-47341452D01*
%TO.C,J2*%
X98998200Y-87820000D02*
X92498200Y-87820000D01*
X98998200Y-79820000D02*
X98998200Y-87820000D01*
X92498200Y-79820000D02*
X98998200Y-79820000D01*
X92498200Y-87820000D02*
X92498200Y-79820000D01*
%TO.C,R6*%
X91752641Y-41275000D02*
X91445359Y-41275000D01*
X91752641Y-42035000D02*
X91445359Y-42035000D01*
%TO.C,J4*%
X107685000Y-87820000D02*
X101185000Y-87820000D01*
X101185000Y-87820000D02*
X101185000Y-79820000D01*
X101185000Y-79820000D02*
X107685000Y-79820000D01*
X107685000Y-79820000D02*
X107685000Y-87820000D01*
%TO.C,R7*%
X89368200Y-51772200D02*
X94368200Y-51772200D01*
X94368200Y-51772200D02*
X94368200Y-47272200D01*
X94368200Y-47272200D02*
X89368200Y-47272200D01*
X89368200Y-47272200D02*
X89368200Y-51772200D01*
%TO.C,L1*%
X111110000Y-55840000D02*
X104110000Y-55840000D01*
X104110000Y-55840000D02*
X104110000Y-65840000D01*
X104110000Y-65840000D02*
X111110000Y-65840000D01*
X111110000Y-65840000D02*
X111110000Y-55840000D01*
%TO.C,C3*%
X95139748Y-73018800D02*
X96562252Y-73018800D01*
X95139748Y-70298800D02*
X96562252Y-70298800D01*
%TO.C,R3*%
X100615959Y-52422000D02*
X100923241Y-52422000D01*
X100615959Y-51662000D02*
X100923241Y-51662000D01*
%TO.C,C8*%
X98171364Y-51686600D02*
X98387036Y-51686600D01*
X98171364Y-52406600D02*
X98387036Y-52406600D01*
%TO.C,C10*%
X93205000Y-43311252D02*
X93205000Y-42788748D01*
X94675000Y-43311252D02*
X94675000Y-42788748D01*
%TO.C,R2*%
X106576959Y-44834000D02*
X106884241Y-44834000D01*
X106576959Y-45594000D02*
X106884241Y-45594000D01*
D15*
%TO.C,C11*%
X105711000Y-69958800D02*
X105711000Y-67158800D01*
X105711000Y-67158800D02*
X102211000Y-67158800D01*
X105711000Y-69958800D02*
X102211000Y-69958800D01*
X102211000Y-69958800D02*
X102211000Y-67158800D01*
D11*
%TO.C,R1*%
X96818200Y-42848559D02*
X96818200Y-43155841D01*
X96058200Y-42848559D02*
X96058200Y-43155841D01*
%TO.C,C5*%
X106616964Y-46039400D02*
X106832636Y-46039400D01*
X106616964Y-46759400D02*
X106832636Y-46759400D01*
%TO.C,R5*%
X91445359Y-43442700D02*
X91752641Y-43442700D01*
X91445359Y-42682700D02*
X91752641Y-42682700D01*
%TO.C,C2*%
X95139748Y-66938800D02*
X96562252Y-66938800D01*
X95139748Y-69658800D02*
X96562252Y-69658800D01*
%TO.C,C12*%
X104632252Y-72438800D02*
X103209748Y-72438800D01*
X104632252Y-70618800D02*
X103209748Y-70618800D01*
%TD*%
M02*
