%TF.GenerationSoftware,KiCad,Pcbnew,(6.0.8-1)-1*%
%TF.CreationDate,2022-10-03T20:28:42-04:00*%
%TF.ProjectId,TPS40305_supply,54505334-3033-4303-955f-737570706c79,rev?*%
%TF.SameCoordinates,Original*%
%TF.FileFunction,Soldermask,Top*%
%TF.FilePolarity,Negative*%
%FSLAX46Y46*%
G04 Gerber Fmt 4.6, Leading zero omitted, Abs format (unit mm)*
G04 Created by KiCad (PCBNEW (6.0.8-1)-1) date 2022-10-03 20:28:42*
%MOMM*%
%LPD*%
G01*
G04 APERTURE LIST*
G04 Aperture macros list*
%AMRoundRect*
0 Rectangle with rounded corners*
0 $1 Rounding radius*
0 $2 $3 $4 $5 $6 $7 $8 $9 X,Y pos of 4 corners*
0 Add a 4 corners polygon primitive as box body*
4,1,4,$2,$3,$4,$5,$6,$7,$8,$9,$2,$3,0*
0 Add four circle primitives for the rounded corners*
1,1,$1+$1,$2,$3*
1,1,$1+$1,$4,$5*
1,1,$1+$1,$6,$7*
1,1,$1+$1,$8,$9*
0 Add four rect primitives between the rounded corners*
20,1,$1+$1,$2,$3,$4,$5,0*
20,1,$1+$1,$4,$5,$6,$7,0*
20,1,$1+$1,$6,$7,$8,$9,0*
20,1,$1+$1,$8,$9,$2,$3,0*%
%AMFreePoly0*
4,1,45,-0.199646,1.700354,-0.199500,1.700000,-0.199500,1.200500,0.199500,1.200500,0.199500,1.700000,0.199646,1.700354,0.200000,1.700500,0.450000,1.700500,0.450354,1.700354,0.450500,1.700000,0.450500,1.200500,0.825000,1.200500,0.825354,1.200354,0.825500,1.200000,0.825500,-1.200000,0.825354,-1.200354,0.825000,-1.200500,0.450500,-1.200500,0.450500,-1.700000,0.450354,-1.700354,
0.450000,-1.700500,0.200000,-1.700500,0.199646,-1.700354,0.199500,-1.700000,0.199500,-1.200500,-0.199500,-1.200500,-0.199500,-1.700000,-0.199646,-1.700354,-0.200000,-1.700500,-0.450000,-1.700500,-0.450354,-1.700354,-0.450500,-1.700000,-0.450500,-1.200500,-0.825000,-1.200500,-0.825354,-1.200354,-0.825500,-1.200000,-0.825500,1.200000,-0.825354,1.200354,-0.825000,1.200500,-0.450500,1.200500,
-0.450500,1.700000,-0.450354,1.700354,-0.450000,1.700500,-0.200000,1.700500,-0.199646,1.700354,-0.199646,1.700354,$1*%
%AMFreePoly1*
4,1,35,0.005000,-4.560000,0.003536,-4.563536,0.000000,-4.565000,-5.000000,-4.565000,-5.003536,-4.563536,-5.005000,-4.560000,-5.005000,-3.898000,-5.003536,-3.894464,-5.000000,-3.893000,-4.325000,-3.893000,-4.325000,-3.269700,-5.000000,-3.269700,-5.003536,-3.268236,-5.005000,-3.264700,-5.005000,-2.599700,-5.003536,-2.596164,-5.000000,-2.594700,-4.325000,-2.594700,-4.325000,-1.971400,-5.000000,-1.971400,
-5.003536,-1.969936,-5.005000,-1.966400,-5.005000,-1.301400,-5.003536,-1.297864,-5.000000,-1.296400,-4.325000,-1.296400,-4.325000,-0.673100,-5.000000,-0.673100,-5.003536,-0.671636,-5.005000,-0.668100,-5.005000,0.000000,-5.003536,0.003536,-5.000000,0.005000,0.005000,0.005000,0.005000,-4.560000,0.005000,-4.560000,$1*%
%AMFreePoly2*
4,1,35,0.503536,2.313536,0.505000,2.310000,0.505000,1.905000,0.645000,1.905000,0.645000,2.310000,0.646464,2.313536,0.650000,2.315000,1.150000,2.315000,1.153536,2.313536,1.155000,2.310000,1.155000,1.905000,1.295000,1.905000,1.295000,2.310000,1.296464,2.313536,1.300000,2.315000,1.800000,2.315000,1.803536,2.313536,1.805000,2.310000,1.805000,1.905000,1.945000,1.905000,
1.945000,2.310000,1.946464,2.313536,1.950000,2.315000,2.450000,2.315000,2.453536,2.313536,2.455000,2.310000,2.455000,0.000000,2.453536,-0.003536,2.450000,-0.005000,-0.005000,-0.005000,-0.005000,2.310000,-0.003536,2.313536,0.000000,2.315000,0.500000,2.315000,0.503536,2.313536,0.503536,2.313536,$1*%
G04 Aperture macros list end*
%ADD10C,2.200000*%
%ADD11RoundRect,0.007874X-0.112126X0.292126X-0.112126X-0.292126X0.112126X-0.292126X0.112126X0.292126X0*%
%ADD12C,0.400000*%
%ADD13FreePoly0,270.000000*%
%ADD14R,0.700000X0.800000*%
%ADD15FreePoly1,270.000000*%
%ADD16RoundRect,0.250000X-0.325000X-1.100000X0.325000X-1.100000X0.325000X1.100000X-0.325000X1.100000X0*%
%ADD17RoundRect,0.250000X0.250000X0.475000X-0.250000X0.475000X-0.250000X-0.475000X0.250000X-0.475000X0*%
%ADD18C,2.520000*%
%ADD19RoundRect,0.135000X-0.135000X-0.185000X0.135000X-0.185000X0.135000X0.185000X-0.135000X0.185000X0*%
%ADD20RoundRect,0.250000X0.475000X-0.250000X0.475000X0.250000X-0.475000X0.250000X-0.475000X-0.250000X0*%
%ADD21R,0.500000X0.630000*%
%ADD22FreePoly2,180.000000*%
%ADD23RoundRect,0.250000X-0.475000X0.250000X-0.475000X-0.250000X0.475000X-0.250000X0.475000X0.250000X0*%
%ADD24RoundRect,0.135000X0.135000X0.185000X-0.135000X0.185000X-0.135000X-0.185000X0.135000X-0.185000X0*%
%ADD25R,2.000000X1.600000*%
%ADD26R,2.000000X2.000000*%
%ADD27R,3.100000X2.000000*%
%ADD28RoundRect,0.140000X-0.140000X-0.170000X0.140000X-0.170000X0.140000X0.170000X-0.140000X0.170000X0*%
%ADD29R,1.600000X2.700000*%
%ADD30RoundRect,0.135000X-0.185000X0.135000X-0.185000X-0.135000X0.185000X-0.135000X0.185000X0.135000X0*%
%ADD31RoundRect,0.250000X0.325000X0.650000X-0.325000X0.650000X-0.325000X-0.650000X0.325000X-0.650000X0*%
G04 APERTURE END LIST*
D10*
%TO.C,H4*%
X113230000Y-73640000D03*
%TD*%
%TO.C,H3*%
X86900000Y-42990000D03*
%TD*%
%TO.C,H2*%
X86900000Y-73640000D03*
%TD*%
%TO.C,H1*%
X113230000Y-42990000D03*
%TD*%
D11*
%TO.C,U1*%
X100811091Y-46940800D03*
X100311091Y-46940800D03*
X99781091Y-46940800D03*
X99311091Y-46940800D03*
X98811091Y-46940800D03*
X98811091Y-49740800D03*
X99311091Y-49740800D03*
X99811091Y-49740800D03*
X100311091Y-49740800D03*
X100811091Y-49740800D03*
D12*
X100761091Y-48340800D03*
X99811091Y-48915800D03*
D13*
X99811091Y-48340800D03*
D12*
X99811091Y-47765800D03*
X98861091Y-48340800D03*
%TD*%
D14*
%TO.C,Q2*%
X97361000Y-61781300D03*
X98659300Y-61781300D03*
X99922700Y-61781300D03*
X101221000Y-61781300D03*
D15*
X101571000Y-60876300D03*
%TD*%
D16*
%TO.C,C1*%
X94416000Y-64888800D03*
X97366000Y-64888800D03*
%TD*%
D17*
%TO.C,C6*%
X99942400Y-44186600D03*
X98042400Y-44186600D03*
%TD*%
D18*
%TO.C,J1*%
X88763200Y-86360000D03*
X88763200Y-81280000D03*
%TD*%
D19*
%TO.C,R4*%
X91089000Y-44470400D03*
X92109000Y-44470400D03*
%TD*%
D20*
%TO.C,C9*%
X105875000Y-50166400D03*
X105875000Y-48266400D03*
%TD*%
D21*
%TO.C,Q1*%
X95440971Y-56211729D03*
X94790971Y-56211729D03*
X94140971Y-56211729D03*
X93490971Y-56211729D03*
D22*
X95690971Y-57086729D03*
%TD*%
D18*
%TO.C,J3*%
X111420000Y-86360000D03*
X111420000Y-81280000D03*
%TD*%
D17*
%TO.C,C7*%
X99964800Y-41924400D03*
X98064800Y-41924400D03*
%TD*%
D23*
%TO.C,C4*%
X103392400Y-46130200D03*
X103392400Y-48030200D03*
%TD*%
D18*
%TO.C,J2*%
X95748200Y-86360000D03*
X95748200Y-81280000D03*
%TD*%
D24*
%TO.C,R6*%
X92109000Y-41655000D03*
X91089000Y-41655000D03*
%TD*%
D18*
%TO.C,J4*%
X104435000Y-86360000D03*
X104435000Y-81280000D03*
%TD*%
D25*
%TO.C,R7*%
X94868200Y-48362200D03*
D26*
X88868200Y-49522200D03*
D25*
X94868200Y-50682200D03*
%TD*%
D27*
%TO.C,L1*%
X107610000Y-56680000D03*
X107610000Y-65000000D03*
%TD*%
D16*
%TO.C,C3*%
X94376000Y-71658800D03*
X97326000Y-71658800D03*
%TD*%
D19*
%TO.C,R3*%
X100259600Y-52042000D03*
X101279600Y-52042000D03*
%TD*%
D28*
%TO.C,C8*%
X97799200Y-52046600D03*
X98759200Y-52046600D03*
%TD*%
D20*
%TO.C,C10*%
X93940000Y-44000000D03*
X93940000Y-42100000D03*
%TD*%
D19*
%TO.C,R2*%
X106220600Y-45214000D03*
X107240600Y-45214000D03*
%TD*%
D29*
%TO.C,C11*%
X105461000Y-68558800D03*
X102461000Y-68558800D03*
%TD*%
D30*
%TO.C,R1*%
X96438200Y-42492200D03*
X96438200Y-43512200D03*
%TD*%
D28*
%TO.C,C5*%
X106244800Y-46399400D03*
X107204800Y-46399400D03*
%TD*%
D19*
%TO.C,R5*%
X91089000Y-43062700D03*
X92109000Y-43062700D03*
%TD*%
D16*
%TO.C,C2*%
X94376000Y-68298800D03*
X97326000Y-68298800D03*
%TD*%
D31*
%TO.C,C12*%
X105396000Y-71528800D03*
X102446000Y-71528800D03*
%TD*%
M02*
