%TF.GenerationSoftware,KiCad,Pcbnew,(6.0.8-1)-1*%
%TF.CreationDate,2022-10-03T20:28:42-04:00*%
%TF.ProjectId,TPS40305_supply,54505334-3033-4303-955f-737570706c79,rev?*%
%TF.SameCoordinates,Original*%
%TF.FileFunction,Paste,Top*%
%TF.FilePolarity,Positive*%
%FSLAX46Y46*%
G04 Gerber Fmt 4.6, Leading zero omitted, Abs format (unit mm)*
G04 Created by KiCad (PCBNEW (6.0.8-1)-1) date 2022-10-03 20:28:42*
%MOMM*%
%LPD*%
G01*
G04 APERTURE LIST*
G04 Aperture macros list*
%AMRoundRect*
0 Rectangle with rounded corners*
0 $1 Rounding radius*
0 $2 $3 $4 $5 $6 $7 $8 $9 X,Y pos of 4 corners*
0 Add a 4 corners polygon primitive as box body*
4,1,4,$2,$3,$4,$5,$6,$7,$8,$9,$2,$3,0*
0 Add four circle primitives for the rounded corners*
1,1,$1+$1,$2,$3*
1,1,$1+$1,$4,$5*
1,1,$1+$1,$6,$7*
1,1,$1+$1,$8,$9*
0 Add four rect primitives between the rounded corners*
20,1,$1+$1,$2,$3,$4,$5,0*
20,1,$1+$1,$4,$5,$6,$7,0*
20,1,$1+$1,$6,$7,$8,$9,0*
20,1,$1+$1,$8,$9,$2,$3,0*%
G04 Aperture macros list end*
%ADD10C,0.001000*%
%ADD11C,0.010000*%
%ADD12RoundRect,0.007874X-0.112126X0.292126X-0.112126X-0.292126X0.112126X-0.292126X0.112126X0.292126X0*%
%ADD13R,0.700000X0.800000*%
%ADD14RoundRect,0.250000X-0.325000X-1.100000X0.325000X-1.100000X0.325000X1.100000X-0.325000X1.100000X0*%
%ADD15RoundRect,0.250000X0.250000X0.475000X-0.250000X0.475000X-0.250000X-0.475000X0.250000X-0.475000X0*%
%ADD16RoundRect,0.135000X-0.135000X-0.185000X0.135000X-0.185000X0.135000X0.185000X-0.135000X0.185000X0*%
%ADD17RoundRect,0.250000X0.475000X-0.250000X0.475000X0.250000X-0.475000X0.250000X-0.475000X-0.250000X0*%
%ADD18R,0.500000X0.630000*%
%ADD19RoundRect,0.250000X-0.475000X0.250000X-0.475000X-0.250000X0.475000X-0.250000X0.475000X0.250000X0*%
%ADD20RoundRect,0.135000X0.135000X0.185000X-0.135000X0.185000X-0.135000X-0.185000X0.135000X-0.185000X0*%
%ADD21R,2.000000X1.600000*%
%ADD22R,2.000000X2.000000*%
%ADD23R,3.100000X2.000000*%
%ADD24RoundRect,0.140000X-0.140000X-0.170000X0.140000X-0.170000X0.140000X0.170000X-0.140000X0.170000X0*%
%ADD25R,1.600000X2.700000*%
%ADD26RoundRect,0.135000X-0.185000X0.135000X-0.185000X-0.135000X0.185000X-0.135000X0.185000X0.135000X0*%
%ADD27RoundRect,0.250000X0.325000X0.650000X-0.325000X0.650000X-0.325000X-0.650000X0.325000X-0.650000X0*%
G04 APERTURE END LIST*
%TO.C,U1*%
G36*
X99701091Y-49050800D02*
G01*
X98691091Y-49050800D01*
X98691091Y-47600800D01*
X99701091Y-47600800D01*
X99701091Y-49050800D01*
G37*
D10*
X99701091Y-49050800D02*
X98691091Y-49050800D01*
X98691091Y-47600800D01*
X99701091Y-47600800D01*
X99701091Y-49050800D01*
G36*
X98481091Y-48140800D02*
G01*
X98111091Y-48140800D01*
X98111091Y-47890800D01*
X98481091Y-47890800D01*
X98481091Y-48140800D01*
G37*
X98481091Y-48140800D02*
X98111091Y-48140800D01*
X98111091Y-47890800D01*
X98481091Y-47890800D01*
X98481091Y-48140800D01*
G36*
X98481091Y-48790800D02*
G01*
X98111091Y-48790800D01*
X98111091Y-48540800D01*
X98481091Y-48540800D01*
X98481091Y-48790800D01*
G37*
X98481091Y-48790800D02*
X98111091Y-48790800D01*
X98111091Y-48540800D01*
X98481091Y-48540800D01*
X98481091Y-48790800D01*
G36*
X101511091Y-48140800D02*
G01*
X101141091Y-48140800D01*
X101141091Y-47890800D01*
X101511091Y-47890800D01*
X101511091Y-48140800D01*
G37*
X101511091Y-48140800D02*
X101141091Y-48140800D01*
X101141091Y-47890800D01*
X101511091Y-47890800D01*
X101511091Y-48140800D01*
G36*
X101511091Y-48790800D02*
G01*
X101141091Y-48790800D01*
X101141091Y-48540800D01*
X101511091Y-48540800D01*
X101511091Y-48790800D01*
G37*
X101511091Y-48790800D02*
X101141091Y-48790800D01*
X101141091Y-48540800D01*
X101511091Y-48540800D01*
X101511091Y-48790800D01*
G36*
X100921091Y-49050800D02*
G01*
X99911091Y-49050800D01*
X99911091Y-47600800D01*
X100921091Y-47600800D01*
X100921091Y-49050800D01*
G37*
X100921091Y-49050800D02*
X99911091Y-49050800D01*
X99911091Y-47600800D01*
X100921091Y-47600800D01*
X100921091Y-49050800D01*
%TO.C,Q2*%
G36*
X101411000Y-60718800D02*
G01*
X99491000Y-60718800D01*
X99491000Y-56738800D01*
X101411000Y-56738800D01*
X101411000Y-60718800D01*
G37*
D11*
X101411000Y-60718800D02*
X99491000Y-60718800D01*
X99491000Y-56738800D01*
X101411000Y-56738800D01*
X101411000Y-60718800D01*
G36*
X100201000Y-56508800D02*
G01*
X99671000Y-56498800D01*
X99671000Y-55938800D01*
X100201000Y-55938800D01*
X100201000Y-56508800D01*
G37*
X100201000Y-56508800D02*
X99671000Y-56498800D01*
X99671000Y-55938800D01*
X100201000Y-55938800D01*
X100201000Y-56508800D01*
G36*
X98901000Y-56508800D02*
G01*
X98371000Y-56498800D01*
X98371000Y-55938800D01*
X98901000Y-55938800D01*
X98901000Y-56508800D01*
G37*
X98901000Y-56508800D02*
X98371000Y-56498800D01*
X98371000Y-55938800D01*
X98901000Y-55938800D01*
X98901000Y-56508800D01*
G36*
X101491000Y-56528800D02*
G01*
X100961000Y-56518800D01*
X100961000Y-55958800D01*
X101491000Y-55958800D01*
X101491000Y-56528800D01*
G37*
X101491000Y-56528800D02*
X100961000Y-56518800D01*
X100961000Y-55958800D01*
X101491000Y-55958800D01*
X101491000Y-56528800D01*
G36*
X99131000Y-60708800D02*
G01*
X97211000Y-60708800D01*
X97211000Y-56728800D01*
X99131000Y-56728800D01*
X99131000Y-60708800D01*
G37*
X99131000Y-60708800D02*
X97211000Y-60708800D01*
X97211000Y-56728800D01*
X99131000Y-56728800D01*
X99131000Y-60708800D01*
G36*
X97601000Y-56528800D02*
G01*
X97071000Y-56518800D01*
X97071000Y-55958800D01*
X97601000Y-55958800D01*
X97601000Y-56528800D01*
G37*
X97601000Y-56528800D02*
X97071000Y-56518800D01*
X97071000Y-55958800D01*
X97601000Y-55958800D01*
X97601000Y-56528800D01*
%TO.C,Q1*%
G36*
X95575971Y-58706729D02*
G01*
X94565971Y-58706729D01*
X94565971Y-57266729D01*
X95575971Y-57266729D01*
X95575971Y-58706729D01*
G37*
D10*
X95575971Y-58706729D02*
X94565971Y-58706729D01*
X94565971Y-57266729D01*
X95575971Y-57266729D01*
X95575971Y-58706729D01*
G36*
X94305971Y-59316729D02*
G01*
X93965971Y-59316729D01*
X93965971Y-58876729D01*
X94305971Y-58876729D01*
X94305971Y-59316729D01*
G37*
X94305971Y-59316729D02*
X93965971Y-59316729D01*
X93965971Y-58876729D01*
X94305971Y-58876729D01*
X94305971Y-59316729D01*
G36*
X95615971Y-59326729D02*
G01*
X95275971Y-59326729D01*
X95275971Y-58886729D01*
X95615971Y-58886729D01*
X95615971Y-59326729D01*
G37*
X95615971Y-59326729D02*
X95275971Y-59326729D01*
X95275971Y-58886729D01*
X95615971Y-58886729D01*
X95615971Y-59326729D01*
G36*
X94355971Y-58716729D02*
G01*
X93345971Y-58716729D01*
X93345971Y-57276729D01*
X94355971Y-57276729D01*
X94355971Y-58716729D01*
G37*
X94355971Y-58716729D02*
X93345971Y-58716729D01*
X93345971Y-57276729D01*
X94355971Y-57276729D01*
X94355971Y-58716729D01*
G36*
X93655971Y-59316729D02*
G01*
X93315971Y-59316729D01*
X93315971Y-58876729D01*
X93655971Y-58876729D01*
X93655971Y-59316729D01*
G37*
X93655971Y-59316729D02*
X93315971Y-59316729D01*
X93315971Y-58876729D01*
X93655971Y-58876729D01*
X93655971Y-59316729D01*
G36*
X94965971Y-59316729D02*
G01*
X94625971Y-59316729D01*
X94625971Y-58876729D01*
X94965971Y-58876729D01*
X94965971Y-59316729D01*
G37*
X94965971Y-59316729D02*
X94625971Y-59316729D01*
X94625971Y-58876729D01*
X94965971Y-58876729D01*
X94965971Y-59316729D01*
%TD*%
D12*
%TO.C,U1*%
X100811091Y-46940800D03*
X100311091Y-46940800D03*
X99781091Y-46940800D03*
X99311091Y-46940800D03*
X98811091Y-46940800D03*
X98811091Y-49740800D03*
X99311091Y-49740800D03*
X99811091Y-49740800D03*
X100311091Y-49740800D03*
X100811091Y-49740800D03*
%TD*%
D13*
%TO.C,Q2*%
X97361000Y-61781300D03*
X98659300Y-61781300D03*
X99922700Y-61781300D03*
X101221000Y-61781300D03*
%TD*%
D14*
%TO.C,C1*%
X94416000Y-64888800D03*
X97366000Y-64888800D03*
%TD*%
D15*
%TO.C,C6*%
X99942400Y-44186600D03*
X98042400Y-44186600D03*
%TD*%
D16*
%TO.C,R4*%
X91089000Y-44470400D03*
X92109000Y-44470400D03*
%TD*%
D17*
%TO.C,C9*%
X105875000Y-50166400D03*
X105875000Y-48266400D03*
%TD*%
D18*
%TO.C,Q1*%
X95440971Y-56211729D03*
X94790971Y-56211729D03*
X94140971Y-56211729D03*
X93490971Y-56211729D03*
%TD*%
D15*
%TO.C,C7*%
X99964800Y-41924400D03*
X98064800Y-41924400D03*
%TD*%
D19*
%TO.C,C4*%
X103392400Y-46130200D03*
X103392400Y-48030200D03*
%TD*%
D20*
%TO.C,R6*%
X92109000Y-41655000D03*
X91089000Y-41655000D03*
%TD*%
D21*
%TO.C,R7*%
X94868200Y-48362200D03*
D22*
X88868200Y-49522200D03*
D21*
X94868200Y-50682200D03*
%TD*%
D23*
%TO.C,L1*%
X107610000Y-56680000D03*
X107610000Y-65000000D03*
%TD*%
D14*
%TO.C,C3*%
X94376000Y-71658800D03*
X97326000Y-71658800D03*
%TD*%
D16*
%TO.C,R3*%
X100259600Y-52042000D03*
X101279600Y-52042000D03*
%TD*%
D24*
%TO.C,C8*%
X97799200Y-52046600D03*
X98759200Y-52046600D03*
%TD*%
D17*
%TO.C,C10*%
X93940000Y-44000000D03*
X93940000Y-42100000D03*
%TD*%
D16*
%TO.C,R2*%
X106220600Y-45214000D03*
X107240600Y-45214000D03*
%TD*%
D25*
%TO.C,C11*%
X105461000Y-68558800D03*
X102461000Y-68558800D03*
%TD*%
D26*
%TO.C,R1*%
X96438200Y-42492200D03*
X96438200Y-43512200D03*
%TD*%
D24*
%TO.C,C5*%
X106244800Y-46399400D03*
X107204800Y-46399400D03*
%TD*%
D16*
%TO.C,R5*%
X91089000Y-43062700D03*
X92109000Y-43062700D03*
%TD*%
D14*
%TO.C,C2*%
X94376000Y-68298800D03*
X97326000Y-68298800D03*
%TD*%
D27*
%TO.C,C12*%
X105396000Y-71528800D03*
X102446000Y-71528800D03*
%TD*%
M02*
