M48
; DRILL file {KiCad (6.0.8-1)-1} date Monday, October 03, 2022 at 08:28:45 PM
; FORMAT={-:-/ absolute / inch / decimal}
; #@! TF.CreationDate,2022-10-03T20:28:45-04:00
; #@! TF.GenerationSoftware,Kicad,Pcbnew,(6.0.8-1)-1
; #@! TF.FileFunction,Plated,1,2,PTH
FMAT,2
INCH
; #@! TA.AperFunction,Plated,PTH,ComponentDrill
T1C0.0118
; #@! TA.AperFunction,Plated,PTH,ViaDrill
T2C0.0157
; #@! TA.AperFunction,Plated,PTH,ComponentDrill
T3C0.0551
%
G90
G05
T1
X3.8922Y-1.9032
X3.9296Y-1.8805
X3.9296Y-1.9258
X3.967Y-1.9032
T2
X3.5866Y-1.8157
X3.6179Y-2.2093
X3.818Y-1.9725
X3.8193Y-1.9035
X3.8315Y-2.937
X3.8413Y-2.0942
X3.9067Y-2.4791
X3.9079Y-2.5374
X3.926Y-2.6024
X3.9323Y-2.7425
X3.9331Y-2.6689
X3.9331Y-2.8205
X3.9331Y-2.8988
X3.9917Y-2.528
X4.0069Y-1.8053
X4.0295Y-2.5969
X4.0295Y-2.937
X4.0339Y-2.0492
X4.0406Y-2.1327
X4.0535Y-2.4807
X4.0677Y-2.4303
T3
X3.4946Y-3.2
X3.4946Y-3.4
X3.7696Y-3.2
X3.7696Y-3.4
X4.1116Y-3.2
X4.1116Y-3.4
X4.3866Y-3.2
X4.3866Y-3.4
T0
M30
