%TF.GenerationSoftware,KiCad,Pcbnew,(6.0.8-1)-1*%
%TF.CreationDate,2022-10-03T20:28:42-04:00*%
%TF.ProjectId,TPS40305_supply,54505334-3033-4303-955f-737570706c79,rev?*%
%TF.SameCoordinates,Original*%
%TF.FileFunction,Copper,L2,Bot*%
%TF.FilePolarity,Positive*%
%FSLAX46Y46*%
G04 Gerber Fmt 4.6, Leading zero omitted, Abs format (unit mm)*
G04 Created by KiCad (PCBNEW (6.0.8-1)-1) date 2022-10-03 20:28:42*
%MOMM*%
%LPD*%
G01*
G04 APERTURE LIST*
%TA.AperFunction,ComponentPad*%
%ADD10C,0.400000*%
%TD*%
%TA.AperFunction,ComponentPad*%
%ADD11C,2.520000*%
%TD*%
%TA.AperFunction,ViaPad*%
%ADD12C,0.800000*%
%TD*%
%TA.AperFunction,Conductor*%
%ADD13C,0.254000*%
%TD*%
G04 APERTURE END LIST*
D10*
%TO.P,U1,11,GND*%
%TO.N,/GND*%
X100761091Y-48340800D03*
X99811091Y-48915800D03*
X99811091Y-47765800D03*
X98861091Y-48340800D03*
%TD*%
D11*
%TO.P,J1,1,Pin_1*%
%TO.N,/VIN*%
X88763200Y-86360000D03*
X88763200Y-81280000D03*
%TD*%
%TO.P,J3,1,Pin_1*%
%TO.N,/VOUT*%
X111420000Y-86360000D03*
X111420000Y-81280000D03*
%TD*%
%TO.P,J2,1,Pin_1*%
%TO.N,/GND*%
X95748200Y-86360000D03*
X95748200Y-81280000D03*
%TD*%
%TO.P,J4,1,Pin_1*%
%TO.N,/GND*%
X104435000Y-86360000D03*
X104435000Y-81280000D03*
%TD*%
D12*
%TO.N,/GND*%
X97320000Y-74600000D03*
X102350000Y-74600000D03*
X101390000Y-64210000D03*
X102350000Y-65960000D03*
%TO.N,/VIN*%
X101774000Y-45855600D03*
X91894800Y-56115000D03*
%TO.N,/GND*%
X99260000Y-64450000D03*
X99720000Y-66100000D03*
X99900000Y-73630000D03*
X99230000Y-62970000D03*
X99880000Y-69660000D03*
X97010000Y-48350000D03*
X99900000Y-67790000D03*
X102460000Y-52050000D03*
X99900000Y-71640000D03*
%TO.N,Net-(C8-Pad1)*%
X97568200Y-53192200D03*
X96978200Y-50102200D03*
%TO.N,/VOUT*%
X102960000Y-63010000D03*
X91100000Y-46120000D03*
%TO.N,Net-(Q2-Pad4)*%
X102630000Y-54170000D03*
X103320000Y-61730000D03*
%TD*%
D13*
%TO.N,/VOUT*%
X104560000Y-63010000D02*
X102960000Y-63010000D01*
X91100000Y-46120000D02*
X92690000Y-44530000D01*
X92690000Y-44530000D02*
X106380000Y-44530000D01*
X108040000Y-46190000D02*
X108040000Y-59530000D01*
X106380000Y-44530000D02*
X108040000Y-46190000D01*
X108040000Y-59530000D02*
X104560000Y-63010000D01*
%TO.N,/VIN*%
X91894800Y-56115000D02*
X91894800Y-47535200D01*
X93574400Y-45855600D02*
X101774000Y-45855600D01*
X91894800Y-47535200D02*
X93574400Y-45855600D01*
%TO.N,Net-(C8-Pad1)*%
X97568200Y-53192200D02*
X96978200Y-52602200D01*
X96978200Y-52602200D02*
X96978200Y-50102200D01*
%TO.N,Net-(Q2-Pad4)*%
X103320000Y-54860000D02*
X102630000Y-54170000D01*
X103320000Y-61730000D02*
X103320000Y-54860000D01*
%TD*%
%TA.AperFunction,Conductor*%
%TO.N,/GND*%
G36*
X107084013Y-47530087D02*
G01*
X107130587Y-47583672D01*
X107142035Y-47634121D01*
X107184740Y-50238350D01*
X107197383Y-51009376D01*
X107178501Y-51077816D01*
X107151384Y-51108800D01*
X103415240Y-54178188D01*
X103386149Y-54202087D01*
X103320816Y-54229874D01*
X103250831Y-54217929D01*
X103198415Y-54170043D01*
X103181243Y-54121175D01*
X103169747Y-54033850D01*
X103169746Y-54033848D01*
X103168669Y-54025664D01*
X103112957Y-53891165D01*
X103024333Y-53775667D01*
X102908836Y-53687043D01*
X102774336Y-53631331D01*
X102630000Y-53612329D01*
X102621812Y-53613407D01*
X102493850Y-53630253D01*
X102493848Y-53630254D01*
X102485664Y-53631331D01*
X102438549Y-53650847D01*
X102358793Y-53683883D01*
X102358791Y-53683884D01*
X102351165Y-53687043D01*
X102235667Y-53775667D01*
X102147043Y-53891165D01*
X102091331Y-54025664D01*
X102072329Y-54170000D01*
X102091331Y-54314336D01*
X102147043Y-54448835D01*
X102235667Y-54564333D01*
X102351164Y-54652957D01*
X102485664Y-54708669D01*
X102630000Y-54727671D01*
X102711402Y-54716954D01*
X102781549Y-54727893D01*
X102816943Y-54752781D01*
X103003196Y-54939035D01*
X103037221Y-55001347D01*
X103040100Y-55028130D01*
X103040100Y-61185723D01*
X103020098Y-61253844D01*
X102990804Y-61285686D01*
X102925667Y-61335667D01*
X102837043Y-61451165D01*
X102781331Y-61585664D01*
X102762329Y-61730000D01*
X102781331Y-61874336D01*
X102837043Y-62008835D01*
X102925667Y-62124333D01*
X103041164Y-62212957D01*
X103048795Y-62216118D01*
X103055945Y-62220246D01*
X103054243Y-62223194D01*
X103097222Y-62257850D01*
X103119622Y-62325220D01*
X103102043Y-62394006D01*
X103050067Y-62442369D01*
X102977255Y-62454601D01*
X102960000Y-62452329D01*
X102951812Y-62453407D01*
X102823850Y-62470253D01*
X102823848Y-62470254D01*
X102815664Y-62471331D01*
X102808037Y-62474490D01*
X102808038Y-62474490D01*
X102688793Y-62523883D01*
X102688791Y-62523884D01*
X102681165Y-62527043D01*
X102565667Y-62615667D01*
X102477043Y-62731165D01*
X102421331Y-62865664D01*
X102402329Y-63010000D01*
X102421331Y-63154336D01*
X102477043Y-63288835D01*
X102565667Y-63404333D01*
X102681164Y-63492957D01*
X102815664Y-63548669D01*
X102960000Y-63567671D01*
X102968188Y-63566593D01*
X103096148Y-63549747D01*
X103104336Y-63548669D01*
X103111963Y-63545510D01*
X103111966Y-63545509D01*
X103210523Y-63504685D01*
X103281113Y-63497096D01*
X103344600Y-63528875D01*
X103380827Y-63589933D01*
X103384740Y-63620493D01*
X103430000Y-73110000D01*
X103439425Y-73124956D01*
X107670736Y-79839431D01*
X107690136Y-79906132D01*
X107719523Y-87693525D01*
X107699778Y-87761720D01*
X107646298Y-87808415D01*
X107593524Y-87820000D01*
X92606795Y-87820000D01*
X92538674Y-87799998D01*
X92492181Y-87746342D01*
X92480797Y-87693208D01*
X92529794Y-79902727D01*
X92546107Y-79841509D01*
X96241962Y-73304217D01*
X96250000Y-73290000D01*
X96239758Y-63528875D01*
X96230344Y-54557788D01*
X96230000Y-54230000D01*
X96219760Y-54217929D01*
X93909802Y-51495128D01*
X93880985Y-51430243D01*
X93879883Y-51413936D01*
X93876545Y-50102200D01*
X96420529Y-50102200D01*
X96439531Y-50246536D01*
X96495243Y-50381035D01*
X96583867Y-50496533D01*
X96649006Y-50546516D01*
X96690872Y-50603853D01*
X96698300Y-50646477D01*
X96698300Y-52553784D01*
X96698151Y-52555812D01*
X96696506Y-52560603D01*
X96696942Y-52572226D01*
X96696942Y-52572228D01*
X96698211Y-52606016D01*
X96698300Y-52610743D01*
X96698300Y-52628231D01*
X96699139Y-52632734D01*
X96699317Y-52635483D01*
X96699981Y-52653176D01*
X96699982Y-52653179D01*
X96700418Y-52664801D01*
X96705010Y-52675491D01*
X96706563Y-52682379D01*
X96707870Y-52686681D01*
X96710413Y-52693270D01*
X96712543Y-52704708D01*
X96724262Y-52723719D01*
X96732766Y-52740092D01*
X96741579Y-52760604D01*
X96745319Y-52765157D01*
X96747504Y-52767342D01*
X96749559Y-52769608D01*
X96749293Y-52769849D01*
X96753330Y-52774957D01*
X96753338Y-52774950D01*
X96761153Y-52783568D01*
X96767257Y-52793471D01*
X96781645Y-52804412D01*
X96787079Y-52808544D01*
X96799907Y-52819745D01*
X96985419Y-53005257D01*
X97019445Y-53067569D01*
X97021246Y-53110797D01*
X97010529Y-53192200D01*
X97029531Y-53336536D01*
X97085243Y-53471035D01*
X97173867Y-53586533D01*
X97289364Y-53675157D01*
X97423864Y-53730869D01*
X97568200Y-53749871D01*
X97576388Y-53748793D01*
X97704348Y-53731947D01*
X97712536Y-53730869D01*
X97847036Y-53675157D01*
X97962533Y-53586533D01*
X98051157Y-53471035D01*
X98106869Y-53336536D01*
X98125871Y-53192200D01*
X98122815Y-53168987D01*
X98107947Y-53056050D01*
X98107946Y-53056048D01*
X98106869Y-53047864D01*
X98051157Y-52913365D01*
X97962533Y-52797867D01*
X97847036Y-52709243D01*
X97712536Y-52653531D01*
X97568200Y-52634529D01*
X97486798Y-52645246D01*
X97416650Y-52634307D01*
X97381257Y-52609419D01*
X97295005Y-52523167D01*
X97260979Y-52460855D01*
X97258100Y-52434072D01*
X97258100Y-50646477D01*
X97278102Y-50578356D01*
X97307394Y-50546516D01*
X97372533Y-50496533D01*
X97461157Y-50381035D01*
X97516869Y-50246536D01*
X97535871Y-50102200D01*
X97516869Y-49957864D01*
X97461157Y-49823365D01*
X97372533Y-49707867D01*
X97257036Y-49619243D01*
X97122536Y-49563531D01*
X96978200Y-49544529D01*
X96970012Y-49545607D01*
X96842050Y-49562453D01*
X96842048Y-49562454D01*
X96833864Y-49563531D01*
X96786749Y-49583047D01*
X96706993Y-49616083D01*
X96706991Y-49616084D01*
X96699365Y-49619243D01*
X96583867Y-49707867D01*
X96495243Y-49823365D01*
X96439531Y-49957864D01*
X96420529Y-50102200D01*
X93876545Y-50102200D01*
X93870321Y-47656131D01*
X93890150Y-47587959D01*
X93943687Y-47541330D01*
X93996131Y-47529810D01*
X100631670Y-47519809D01*
X107015862Y-47510187D01*
X107084013Y-47530087D01*
G37*
%TD.AperFunction*%
%TD*%
M02*
